<svg enable-background="new 0 0 24 24" viewBox="0 0 24 24" xmlns="http://www.w3.org/2000/svg"><g fill="#347782" transform="translate(-2 -2)"><path d="m22 26h-16c-2.2 0-4-1.8-4-4v-16c0-2.2 1.8-4 4-4h16c2.2 0 4 1.8 4 4v16c0 2.2-1.8 4-4 4zm-16-22.4c-1.3 0-2.4 1.1-2.4 2.4v16c0 1.3 1.1 2.4 2.4 2.4h16c1.3 0 2.4-1.1 2.4-2.4v-16c0-1.3-1.1-2.4-2.4-2.4z"/><path clip-rule="evenodd" d="m6 5.2c.4 0 .8.3.8.8 0 .4-.3.8-.8.8s-.8-.3-.8-.8c0-.4.4-.8.8-.8zm3.2 0c.4 0 .8.3.8.8 0 .4-.3.8-.8.8s-.8-.3-.8-.8c0-.4.4-.8.8-.8z" fill-rule="evenodd"/><path d="m11.6 22h-4c-.6 0-1.2-.2-1.7-.7-.4-.5-.7-1.1-.7-1.7v-7.2c0-1.3 1.1-2.4 2.4-2.4h4c.6 0 1.2.3 1.7.7.4.5.7 1.1.7 1.7v7.2c0 .6-.3 1.2-.7 1.7-.5.4-1.1.7-1.7.7zm-4-10.4c-.4 0-.8.4-.8.8v7.2c0 .4.4.8.8.8h4c.4 0 .8-.4.8-.8v-7.2c0-.4-.4-.8-.8-.8zm14.4.8h-5.6c-.4 0-.8-.4-.8-.8s.4-.8.8-.8h5.6c.4 0 .8.4.8.8s-.4.8-.8.8zm0 8.8h-5.6c-.4 0-.8-.4-.8-.8s.4-.8.8-.8h5.6c.4 0 .8.4.8.8s-.4.8-.8.8zm0-4.4h-5.6c-.4 0-.8-.4-.8-.8s.4-.8.8-.8h5.6c.4 0 .8.4.8.8s-.4.8-.8.8z"/></g></svg>