<svg enable-background="new 0 0 64 64" viewBox="0 0 64 64" xmlns="http://www.w3.org/2000/svg"><g fill="#b8a68d"><path d="m63 58h-1v-3c0-.553-.447-1-1-1h-1v-3c0-.553-.447-1-1-1v-18c.553 0 1-.447 1-1v-3h1c.553 0 1-.447 1-1v-6h1c.447 0 .841-.298.963-.729.121-.431-.059-.89-.44-1.124l-31-19c-.32-.197-.725-.197-1.045 0l-31 19c-.382.234-.562.693-.44 1.124.121.431.515.729.962.729h1v6c0 .553.447 1 1 1h1v3c0 .553.447 1 1 1v18c-.553 0-1 .447-1 1v3h-1c-.553 0-1 .447-1 1v3h-1c-.553 0-1 .447-1 1v4c0 .553.447 1 1 1h62c.553 0 1-.447 1-1v-4c0-.553-.447-1-1-1zm-17-4v-3c0-.553-.447-1-1-1v-18c.553 0 1-.447 1-1v-3h4v3c0 .553.447 1 1 1v18c-.553 0-1 .447-1 1v3zm-18 0v-3c0-.553-.447-1-1-1v-18c.553 0 1-.447 1-1v-3h8v3c0 .553.447 1 1 1v18c-.553 0-1 .447-1 1v3zm-14 0v-3c0-.553-.447-1-1-1v-18c.553 0 1-.447 1-1v-3h4v3c0 .553.447 1 1 1v18c-.553 0-1 .447-1 1v3zm11-4h-4v-18h4zm1-20h-6v-2h6zm-6 22h6v2h-6zm23-2h-4v-18h4zm1-20h-6v-2h6zm-6 22h6v2h-6zm14 0h6v2h-6zm5-2h-4v-18h4zm1-20h-6v-2h6zm-26-27.827 27.455 16.827h-2.724l-24.214-14.62c-.316-.191-.717-.191-1.033 0l-10 6.038c-.473.286-.625.9-.34 1.373.286.474.901.625 1.373.34l9.483-5.727 20.861 12.596h-41.722l8.377-5.058c.473-.286.625-.9.34-1.373-.286-.474-.902-.626-1.373-.34l-11.214 6.771h-2.724zm28 18.827v2h-20c-.553 0-1 .447-1 1s.447 1 1 1h20v1h-56v-1h32c.553 0 1-.447 1-1s-.447-1-1-1h-32v-2zm-48 7v2h-6v-2zm-5 4h4v18h-4zm-1 20h6v2h-6zm-2 4h56v2h-56zm58 6h-60v-2h60z"/><path d="m27 17h10c.553 0 1-.447 1-1v-4c0-.553-.447-1-1-1h-10c-.553 0-1 .447-1 1v4c0 .553.447 1 1 1zm1-4h8v2h-8z"/></g></svg>