<svg viewBox="0 0 1512.23 1798.94" xmlns="http://www.w3.org/2000/svg"><g fill="#72828a"><path d="m995.79 137.66c14.38 8.63 28.43 17.8 42.1 27.51 3.21 2.28 6.4 4.6 9.57 6.94 1.58 1.17 3.16 2.35 4.73 3.53.79.59 1.57 1.19 2.35 1.78.75.57 4.3 3.34.94.71-3.56-2.78 1.99 1.57 2.67 2.1 1.55 1.22 3.09 2.44 4.62 3.68 3.26 2.62 6.49 5.27 9.7 7.95 25.31 21.15 49 44.22 70.84 68.92 5.56 6.29 10.99 12.68 16.31 19.17 2.5 3.06 4.98 6.14 7.43 9.24 1.22 1.55 2.4 3.15 3.66 4.67-5.05-6.16.24.35 1.43 1.93 9.86 13.07 19.24 26.5 28.12 40.25 18.2 28.18 34.31 57.7 48.2 88.23 1.67 3.68 3.31 7.37 4.92 11.07.8 1.85 1.55 3.74 2.39 5.58-3.38-7.36.22.59.94 2.34 3.27 7.99 6.38 16.04 9.35 24.15 5.81 15.85 11.04 31.91 15.7 48.14 9.67 33.68 15.93 67.75 21.46 102.29-1.3-8.11-.02 0 .21 1.88.26 2.1.51 4.2.75 6.3.51 4.48.99 8.96 1.42 13.45.87 9.03 1.57 18.07 2.11 27.13 1.16 19.51 1.4 39.04 1.39 58.57-.04 44.34-1.7 88.67-5.04 132.88-1.65 21.87-3.72 43.7-6.21 65.49-1.22 10.68-2.55 21.35-3.96 32.02-.49 3.71.64-4.66.12-.95-.18 1.29-.35 2.58-.53 3.87-.4 2.9-.81 5.79-1.23 8.69-.79 5.46-1.6 10.93-2.45 16.38-6.61 42.82-14.86 85.39-24.77 127.58-2.43 10.35-4.97 20.68-7.59 30.98-3.28 12.87 4.19 28.18 17.76 31.27 13.22 3.01 27.76-3.97 31.27-17.76 22.16-87.03 37.23-175.83 45.67-265.23 4.22-44.64 6.7-89.43 7.5-134.26.72-39.99.49-80.01-3.51-119.84-7.23-71.87-23.9-142.57-51.55-209.37-27.39-66.18-63.61-127.49-109.01-182.93-43.48-53.1-95.33-99.33-152.77-136.88-7.02-4.59-14.14-9.04-21.34-13.35-11.41-6.85-28.42-2.92-34.78 9.12-6.5 12.31-3.06 27.47 9.12 34.78z"/><path d="m69.74 494.44c2.96-8.07 6.05-16.09 9.28-24.06.75-1.86 1.52-3.71 2.29-5.56.36-.87 1.83-4.4.38-.93-1.37 3.3-.21.51.06-.13 1.82-4.21 3.65-8.41 5.53-12.59 7.07-15.67 14.69-31.09 22.85-46.23 16.38-30.37 34.93-59.57 55.46-87.31 2.41-3.25 4.85-6.48 7.3-9.69.4-.53 2.24-2.93.13-.18-2.23 2.91.12-.14.68-.85 1.43-1.82 2.86-3.64 4.31-5.45 5.43-6.8 10.98-13.5 16.66-20.1 10.93-12.72 22.31-25.07 34.09-37.01 11.37-11.52 23.14-22.65 35.27-33.37 6.01-5.31 12.12-10.52 18.31-15.62 2.88-2.37 5.78-4.72 8.69-7.05 1.46-1.16 2.92-2.32 4.38-3.46.67-.52 1.93-1.27 2.51-1.96-1.42 1.67-3.84 2.95-.73.57 24.9-19.02 51.09-36.33 78.38-51.73 13.63-7.69 27.53-14.9 41.67-21.6 7.05-3.34 14.16-6.56 21.32-9.65.95-.41 1.92-.8 2.87-1.23.16-.07-5.08 2.12-2.48 1.05 1.68-.69 3.36-1.4 5.04-2.09 3.84-1.57 7.7-3.11 11.58-4.61 29.04-11.23 58.89-20.39 89.24-27.34 14.97-3.43 30.06-6.32 45.23-8.68 3.87-.6 7.75-1.1 11.62-1.7.23-.04-5.75.75-2.87.39 1.04-.13 2.07-.27 3.11-.4 2.08-.26 4.15-.51 6.23-.75 7.81-.9 15.63-1.67 23.47-2.29 36.58-2.9 73.38-2.68 109.92.74 4.5.42 8.99.89 13.48 1.41 2.24.26 4.49.53 6.73.81 1.28.16 2.57.3 3.84.5-1.8-.27-4.2-.59-1.01-.12 9.57 1.4 19.12 2.93 28.63 4.73 18.96 3.58 37.75 8.04 56.31 13.33 9.19 2.62 18.31 5.45 27.37 8.47 12.63 4.2 28.33-4.85 31.27-17.76 3.19-14.02-4.23-26.78-17.76-31.27-75.67-25.13-156.28-36.55-235.96-33.05-65.21 2.87-130.27 14.95-191.92 36.46-61.76 21.55-120.51 51.68-173.71 89.75-55.69 39.85-105.79 87.08-148.35 140.74-45.81 57.76-82.69 121-110.45 189.3-3.24 7.96-6.32 15.99-9.28 24.06-4.59 12.51 5.13 28.4 17.76 31.27 14.37 3.27 26.36-4.37 31.27-17.76z"/><path d="m170.32 543c3.32-9.47 6.83-18.86 10.6-28.16.81-1.99 1.63-3.97 2.45-5.96-2.09 5.08.71-1.62 1.23-2.82 2.15-4.92 4.36-9.82 6.64-14.68 8.36-17.85 17.59-35.29 27.64-52.24 10.28-17.32 21.43-34.13 33.38-50.35 1.29-1.74 2.58-3.48 3.88-5.21.94-1.24 4.91-6.33 1.96-2.6 3.14-3.98 6.28-7.95 9.5-11.87 6.45-7.86 13.1-15.56 19.94-23.09 12.9-14.2 26.46-27.79 40.66-40.68 6.76-6.14 13.66-12.12 20.71-17.94 3.63-3 7.3-5.96 11-8.87.79-.62 1.59-1.24 2.38-1.86-.2.15-3.46 2.63-1.16.91 2.14-1.61 4.27-3.24 6.42-4.83 29.53-21.9 61.18-40.94 94.43-56.64 3.86-1.82 7.74-3.6 11.65-5.33 2.1-.93 4.21-1.85 6.32-2.76.5-.21 3.59-1.49.59-.25-3.44 1.42 1.74-.7 2.42-.98 8.5-3.46 17.08-6.71 25.75-9.74 17.01-5.95 34.33-11.05 51.85-15.27 8.94-2.15 17.93-4.08 26.97-5.77 8.47-1.59 17.69-4.07 26.33-4.26-6.4.14.43-.03 2.08-.22 2.3-.28 4.6-.54 6.9-.78 4.61-.49 9.22-.92 13.84-1.3 9.56-.77 19.14-1.29 28.73-1.56 22.62-.62 45.28.21 67.79 2.49 2.41.24 4.81.5 7.22.78 1.6.18 3.2.38 4.81.58.25.03 4.21.54 1.42.17s1.17.17 1.41.2c1.6.23 3.19.46 4.79.71 2.79.43 5.58.88 8.36 1.35 10.13 1.72 20.22 3.73 30.23 6.04 15.47 3.56 30.79 7.81 45.89 12.74 7.61 2.48 15.16 5.14 22.64 7.96 3.73 1.41 7.44 2.86 11.13 4.35 1.58.64 3.15 1.29 4.73 1.94 1.32.54 4.27 2.08-1.37-.58 1.02.48 2.09.89 3.12 1.34 28.65 12.42 56.18 27.39 82.2 44.66 6.52 4.33 12.95 8.8 19.28 13.41 2.93 2.14 5.83 4.33 8.74 6.51 3.62 2.71-4.14-3.28.82.63 1.54 1.21 3.07 2.42 4.6 3.64 12.2 9.77 23.98 20.07 35.3 30.86 11.13 10.61 21.8 21.69 32 33.19 5.2 5.87 10.28 11.85 15.23 17.93 2.3 2.83 4.56 5.69 6.82 8.55 2.74 3.49-2.92-3.84.65.86 1.36 1.79 2.71 3.59 4.05 5.39 18.68 25.22 35.25 52.02 49.51 79.98 3.63 7.12 7.12 14.32 10.45 21.58 1.55 3.38 3.07 6.78 4.56 10.2.65 1.49 3.05 7.54.49 1.05.74 1.87 1.55 3.71 2.31 5.58 6.11 14.99 11.6 30.24 16.46 45.68 9.81 31.2 17.02 63.21 21.61 95.59.13.89.25 1.78.37 2.67.41 2.92-.31-2.31-.31-2.31.12 2.08.53 4.18.78 6.25.54 4.48 1.02 8.97 1.46 13.46.79 8.14 1.42 16.29 1.89 24.46 1.09 19.1 1.18 38.24 1.08 57.36-.22 42.39-2.04 84.77-5.52 127.02-1.71 20.7-3.81 41.38-6.32 62-.64 5.23-1.32 10.45-1.99 15.68-.38 3.01.11-.8.16-1.17-.15 1.12-.3 2.23-.46 3.35-.41 2.98-.83 5.95-1.25 8.93-1.49 10.39-3.09 20.77-4.78 31.13-6.7 40.87-15.03 81.48-24.99 121.69-9.92 40.04-21.45 79.69-34.57 118.8-6.5 19.39-13.4 38.64-20.67 57.75-3.71 9.74-7.52 19.44-11.42 29.11-1.81 4.49-3.65 8.97-5.51 13.45-.57 1.37-3.17 7.58-1.33 3.21-1.16 2.75-2.33 5.49-3.51 8.23-7.97 18.54-16.31 36.92-24.98 55.14-5.7 11.99-3.72 28 9.12 34.78 11.33 5.98 28.68 3.7 34.78-9.12 36.94-77.63 67.92-158.13 91.8-240.74 23.98-82.98 40.6-167.84 50.85-253.58 5.13-42.93 8.51-86.07 10.19-129.28 1.56-40.23 2.48-80.81-.29-121.01-4.73-68.43-19.95-135.95-46.59-199.2-26.26-62.36-62.11-119.86-107.51-170.15-43.5-48.18-95.81-89.16-153.22-119.49-66.06-34.9-138.33-56-212.72-62.67-79.86-7.16-162.14 3.75-237.53 31.03-74.31 26.89-142.26 68.63-200.38 122.15-60.11 55.36-109.6 123.22-143.72 197.47-8.99 19.56-17.11 39.54-24.23 59.86-4.4 12.57 5 28.37 17.76 31.27 14.2 3.23 26.56-4.3 31.27-17.76z"/><path d="m86.23 746.92c.1 10.41-.17 20.82-.9 31.21-.34 4.83-.78 9.65-1.31 14.47-.25 2.22-.57 4.43-.8 6.65.81-7.96-.19 1.04-.51 3.03-2.8 17.64-6.97 35.05-12.52 52.03-2.62 8.01-5.81 15.76-8.75 23.64.1-.26 2.58-5.98.93-2.2-.37.85-.74 1.7-1.11 2.55-.74 1.68-1.49 3.36-2.26 5.03-1.7 3.69-3.46 7.35-5.3 10.97-6.69 13.22-14.27 25.99-22.66 38.2-2.12 3.09-4.3 6.14-6.52 9.16-1.03 1.39-2.08 2.77-3.12 4.16-2.29 3.05 1.91-2.48 1.89-2.44-.56.94-1.4 1.79-2.09 2.66-4.47 5.63-9.11 11.1-13.92 16.45-8.89 9.89-10.49 26.33 0 35.95 9.7 8.91 26.46 10.56 35.95 0 44.69-49.72 75.97-111.02 87.57-177.04 4.32-24.6 6.51-49.52 6.28-74.49-.13-13.29-11.6-26.04-25.42-25.42-13.67.61-25.56 11.17-25.42 25.42z"/><path d="m78.88 1120.68c44.6-37.83 82.56-84.42 110.58-135.75 36.11-66.15 55.42-140.12 58.4-215.31.7-17.76.02-35.53.75-53.3.35-8.51.91-17 1.7-25.48.35-3.81.75-7.62 1.19-11.43.22-1.9.46-3.8.69-5.69.55-4.44-.18 1.39-.26 1.89.22-1.34.38-2.7.57-4.05 4.74-32.43 12.71-64.38 23.81-95.22 1.37-3.81 2.79-7.59 4.25-11.36.68-1.76 1.38-3.51 2.08-5.26.4-1 .81-2 1.22-3 .34-.84 2.22-5.3.58-1.44-1.55 3.66.8-1.83 1.27-2.91.76-1.73 1.52-3.45 2.3-5.17 1.77-3.93 3.6-7.84 5.48-11.72 7.17-14.82 15.09-29.27 23.73-43.28 8.57-13.9 18.27-26.84 27.65-40.17-4.23 6.02.05-.05 1.04-1.3 1.18-1.5 2.38-2.98 3.58-4.46 2.75-3.39 5.55-6.74 8.39-10.06 5.53-6.45 11.24-12.76 17.1-18.92 12.3-12.91 25.32-25.14 39-36.59 3.1-2.6 6.24-5.15 9.41-7.67.81-.64 1.8-1.61 2.72-2.14-.52.3-4.6 3.5-1.04.81 1.83-1.39 3.67-2.78 5.52-4.14 6.9-5.11 13.95-10.02 21.13-14.73 14.92-9.78 30.42-18.67 46.41-26.59 4.08-2.02 8.19-3.98 12.32-5.87 1.93-.88 3.86-1.75 5.81-2.6 1.11-.49 2.23-.96 3.33-1.45 3.23-1.43-5.8 2.37-.22.09 8.4-3.43 16.88-6.66 25.47-9.59s17.26-5.57 26.01-7.97c12.82-3.52 21.98-18.21 17.76-31.27-4.24-13.12-17.53-21.53-31.27-17.76-72.71 19.98-139.5 57.86-195.05 108.72-50.86 46.57-92.42 104.3-120.15 167.44-28.13 64.04-43.59 132.74-44.72 202.76-.3 18.61.09 37.14-1.21 55.73-.65 9.3-1.66 18.55-2.73 27.81-.34 2.93.34-2.42.33-2.39-.19 1.15-.32 2.32-.49 3.47-.29 2.01-.59 4.02-.91 6.03-.71 4.53-1.49 9.04-2.34 13.55-3.31 17.64-7.65 35.1-13.02 52.22-2.75 8.76-5.76 17.44-9.04 26.01-1.54 4.01-3.42 7.96-4.8 12.03-.01.03 2.04-4.75.9-2.14-.45 1.04-.89 2.08-1.35 3.11-1.07 2.45-2.16 4.89-3.27 7.32-14.25 31.08-32.34 59.48-52.52 86.98-.12.17 3.38-4.33 1.67-2.17-.62.78-1.23 1.57-1.85 2.35-1.07 1.35-2.15 2.7-3.24 4.05-2.43 3-4.9 5.98-7.41 8.92-4.63 5.43-9.38 10.76-14.25 15.97-8.58 9.19-17.53 18.03-26.82 26.49-3.98 3.62-8.03 7.17-12.14 10.66-10.18 8.63-9.55 27.18 0 35.95 10.83 9.94 25.09 9.21 35.95 0z"/><path d="m1116.92 571.44c-22.86-77.07-64.19-148.63-121.21-205.49-52.33-52.19-117.26-91.29-187.96-112.86-47-14.34-96.73-20.78-145.83-19.09-13.28.46-26.05 11.37-25.42 25.42.6 13.38 11.19 25.91 25.42 25.42 21.98-.76 43.98.1 65.82 2.72.62.07 3.58.68 3.84.48-.24.18-6.24-.91-1-.12 2.55.38 5.11.76 7.65 1.17 5.41.88 10.81 1.86 16.18 2.95 8.81 1.79 17.56 3.85 26.24 6.19 17.06 4.6 33.83 10.26 50.19 16.94.95.39 1.9.81 2.86 1.18-.41-.16-5.73-2.47-1.81-.76 1.88.83 3.77 1.64 5.65 2.48 3.98 1.78 7.93 3.62 11.85 5.53 7.58 3.68 15.06 7.59 22.41 11.71 15.06 8.46 29.61 17.84 43.54 28.06 1.63 1.2 3.26 2.41 4.88 3.63.81.61 1.6 1.25 2.42 1.84-.35-.26-4.85-3.81-1.54-1.18 3.37 2.68 6.74 5.37 10.04 8.12 6.61 5.52 13.06 11.23 19.34 17.13 12.38 11.64 24.08 24.01 35.04 37.01 2.62 3.11 5.2 6.26 7.74 9.44 1.2 1.5 4.95 6.97.73.87 1.3 1.88 2.79 3.65 4.15 5.49 5.5 7.39 10.78 14.94 15.82 22.65 12.02 18.38 22.69 37.64 31.95 57.55 1.12 2.41 2.22 4.83 3.3 7.26.48 1.08.96 2.16 1.43 3.25.35.81.71 1.63 1.06 2.44-1.29-3.08-1.57-3.74-.83-1.98 2.14 5.22 4.25 10.45 6.23 15.74 3.99 10.64 7.57 21.43 10.81 32.33 3.78 12.74 18.03 22.04 31.27 17.76 12.9-4.17 21.81-17.62 17.76-31.27z"/><path d="m919.48 1503.85c57.78-93.24 104.99-193.13 140.44-296.94 34.75-101.77 57.3-207.29 68.9-314.16 6.58-60.59 9.35-121.55 8.67-182.49-.15-13.29-11.59-26.04-25.42-25.42-13.65.61-25.58 11.17-25.42 25.42.61 54.17-1.5 108.37-6.61 162.3-1.22 12.87-2.61 25.72-4.16 38.56-.42 3.49-.86 6.98-1.31 10.47-.26 2.01-.98 11.4-.47 3.69-.45 6.92-1.95 13.98-2.99 20.83-3.9 25.91-8.51 51.71-13.83 77.37-10.57 51.02-23.94 101.46-40.07 151-8.06 24.75-16.81 49.27-26.23 73.54-4.81 12.41-9.61 24.89-14.99 37.06 3.03-6.86-.82 1.9-1.52 3.53-1.37 3.2-2.76 6.39-4.16 9.58-2.57 5.85-5.17 11.69-7.82 17.5-25.45 55.97-54.52 110.24-86.9 162.5-7.01 11.32-2.8 28.48 9.12 34.78 12.45 6.58 27.3 2.96 34.78-9.12z"/><path d="m844.52 1304.9c-29.06 58.78-62.41 115.4-99.93 169.19-9.86 14.14-20.02 28.08-30.42 41.82-3.71 4.9-4.11 13.97-2.56 19.59 1.62 5.9 6.18 12.29 11.68 15.19 5.9 3.12 13.05 4.68 19.59 2.56 6.71-2.17 10.97-6.1 15.19-11.68 38.57-50.95 73.45-104.66 104.16-160.71 9.09-16.58 17.81-33.36 26.19-50.31 5.89-11.91 3.59-28.07-9.12-34.78-11.48-6.06-28.49-3.61-34.78 9.12z"/><path d="m122.14 1231.25c31.3-24.04 60.31-50.63 86.39-80.29 35.85-40.78 66.73-86.12 90.36-135.04 30.21-62.55 48.78-129.12 56.59-198.09 2.14-18.9 3.39-37.9 3.81-56.92.41-18.96-.23-37.87 1.29-56.79.37-4.63.83-9.25 1.38-13.87.15-1.29.57-2.77.5-4.06.02.48-.92 6.34-.25 1.9.36-2.42.72-4.84 1.11-7.26 1.53-9.36 3.42-18.66 5.66-27.88 4.41-18.12 10.34-35.71 17.28-53 1.36-3.4-2.6 5.93-.37.87.43-.98.86-1.97 1.29-2.96.87-1.97 1.76-3.93 2.66-5.88 2.03-4.4 4.16-8.75 6.37-13.06 4.18-8.15 8.67-16.15 13.45-23.97 4.94-8.07 10.2-15.95 15.76-23.61 1.43-1.98 2.9-3.93 4.36-5.89 2.26-3.02-1.16.79-1 1.27-.06-.17 2.11-2.68 2.01-2.57 3.04-3.84 6.17-7.63 9.37-11.34 12.19-14.17 25.47-27.41 39.71-39.51 3.46-2.93 6.98-5.79 10.53-8.6 2.33-1.84 1.19.46-1.36 1.05.59-.14 2.2-1.66 2.54-1.92 2.12-1.58 4.26-3.14 6.41-4.68 7.29-5.19 14.78-10.09 22.45-14.68 7.84-4.69 15.88-9.07 24.08-13.1 3.97-1.95 7.98-3.82 12.02-5.61 1.75-.77 8.14-3.16 1.09-.51 2.43-.91 4.81-1.96 7.23-2.9 16.7-6.46 33.94-11.54 51.48-15.16 4.33-.89 8.69-1.7 13.05-2.42 2.06-.34 4.12-.64 6.19-.95 4.35-.65-1.68.23-2.1.27 1.56-.15 3.12-.39 4.67-.57 8.98-1.03 18.01-1.69 27.05-1.96 11.18-.34 22.38-.09 33.54.74 2.55.19 5.09.41 7.63.67 1.95.19 6.64 1.62 8.56.97-.49.17-6.03-.89-1.07-.13l3.78.57c3.15.5 6.29 1.04 9.42 1.64 16.24 3.07 32.24 7.42 47.8 12.97 3.62 1.29 7.23 2.65 10.8 4.08 1.68.67 3.34 1.38 5.01 2.05-.21-.08-6.07-2.62-2.34-.97 1.24.54 2.47 1.08 3.71 1.63 6.95 3.12 13.79 6.49 20.5 10.1 13.72 7.39 26.89 15.78 39.38 25.08 1.59 1.19 6.38 5.14.15.06 1.37 1.12 2.79 2.19 4.18 3.3 3.11 2.5 6.18 5.06 9.19 7.67 5.87 5.09 11.55 10.38 17.04 15.87 5.5 5.5 10.8 11.19 15.9 17.06 2.33 2.69 4.63 5.42 6.87 8.18 1.12 1.38 2.23 2.79 3.34 4.18 2.52 3.14-1.38-1.79-1.51-1.98.78 1.09 1.62 2.13 2.43 3.2 9.41 12.57 17.94 25.8 25.52 39.55 3.72 6.74 7.21 13.6 10.47 20.58 1.64 3.51 3.2 7.05 4.74 10.6 1.26 2.92-2.16-5.23-.97-2.29.34.85.69 1.69 1.04 2.54.86 2.12 1.69 4.25 2.51 6.39 5.69 14.91 10.37 30.21 14 45.76 1.87 8.01 3.47 16.09 4.8 24.21.3 1.87.6 3.74.87 5.62.14.94.27 1.88.4 2.82.51 3.5-.85-6.93-.25-1.8.5 4.28.99 8.55 1.38 12.84 1.66 18.47 1.66 37.02 1.54 55.55-.29 43.37-2.54 86.72-6.87 129.88-1.08 10.74-2.28 21.47-3.62 32.19-.3 2.44-.62 4.89-.93 7.33-.16 1.22-.29 2.45-.48 3.66.98-6.21.36-2.65.17-1.27-.77 5.47-1.54 10.95-2.36 16.41-3.17 21.18-6.86 42.28-11.06 63.28-8.23 41.15-18.46 81.91-30.65 122.07-6 19.75-12.48 39.34-19.4 58.78-4.47 12.55 5.04 28.38 17.76 31.27 14.26 3.25 26.49-4.32 31.27-17.76 28.71-80.62 49.39-164 61.79-248.68 6.56-44.8 11.18-89.86 13.47-135.09 2.04-40.36 3.9-81.62-.18-121.91-6.85-67.57-30.15-133.58-71.03-188.19-41.11-54.9-95.62-96.81-159.92-121.01-74.12-27.89-158.78-28.18-233.37-1.76-75.84 26.87-140.06 78.49-185.13 144.9-44.93 66.21-67.1 145.78-66.43 225.52.16 19.44-.49 38.88-2.08 58.26-.75 9.24-1.72 18.46-2.89 27.66-.82 6.39.77-5.38-.13.97-.32 2.3-.66 4.59-1.01 6.89-.69 4.53-1.44 9.06-2.24 13.58-5.82 33-14.49 65.49-26 96.96-2.69 7.35-5.53 14.65-8.52 21.88-.42 1.02-.86 2.03-1.27 3.05.07-.16 2.63-6.14 1.02-2.44-.7 1.6-1.38 3.21-2.09 4.8-1.57 3.56-3.17 7.1-4.81 10.63-6.17 13.26-12.85 26.28-20.03 39.02-13.27 23.56-28.27 46.06-44.63 67.59-3.08 4.06 4.23-5.42.37-.48-.87 1.12-1.75 2.23-2.63 3.34-1.95 2.46-3.93 4.91-5.92 7.34-3.77 4.59-7.6 9.13-11.5 13.6-7.33 8.41-14.91 16.62-22.7 24.6-13.42 13.74-27.51 26.84-42.23 39.18-2.98 2.5-6 4.97-9.03 7.41-1.34 1.08-2.69 2.15-4.05 3.22-.66.52-1.32 1.03-1.97 1.54-3.7 2.91 5.93-4.56 2.25-1.74-5.49 4.22-9.76 8.22-11.68 15.19-1.68 6.09-.92 14.19 2.56 19.59 6.69 10.38 23.5 17.78 34.78 9.12z"/><path d="m418.68 785.33c-.75 13.98-1.86 27.94-3.38 41.86-.36 3.26-.73 6.52-1.13 9.78-.2 1.62-.41 3.23-.61 4.85-.73 5.82.87-6.11.05-.33-.98 6.87-2.01 13.74-3.16 20.58-4.16 24.71-9.63 49.2-16.42 73.32-6.36 22.59-13.88 44.84-22.53 66.65-1.02 2.58-2.06 5.15-3.11 7.71-.52 1.27-1.06 2.55-1.58 3.82-1.99 4.79 2.48-5.77.43-1.02-2.33 5.4-4.69 10.78-7.14 16.12-4.6 10.02-9.44 19.93-14.52 29.72-18.29 35.24-39.66 68.87-63.69 100.47-.68.89-1.36 1.79-2.05 2.68-2.77 3.62 4.05-5.19 1.24-1.61-1.36 1.74-2.73 3.49-4.11 5.23-2.93 3.7-5.9 7.36-8.91 11-5.58 6.75-11.28 13.4-17.1 19.94-10.55 11.85-21.49 23.36-32.81 34.49-11.08 10.9-22.51 21.43-34.29 31.57-5.21 4.49-10.5 8.89-15.85 13.22-2.45 1.98-4.92 3.95-7.41 5.9-1.95 1.53-7.32 5.57 1.08-.82-1.15.88-2.29 1.76-3.44 2.64-5.5 4.18-9.77 8.26-11.68 15.19-1.68 6.09-.92 14.19 2.56 19.59 6.72 10.43 23.46 17.73 34.78 9.12 21.63-16.45 42.43-33.87 62.11-52.62 24.1-22.96 46.59-47.61 67.25-73.7 25.97-32.78 49.49-67.34 69.53-104.07 22.67-41.54 41.27-85.55 55.27-130.75 16.02-51.75 25.7-105.39 30.07-159.36.57-7.04 1.03-14.09 1.41-21.15.72-13.3-12.21-26.01-25.42-25.42-14.39.64-24.65 11.17-25.42 25.42z"/><path d="m599.28 478.81c-62.88 20.61-116.13 65.89-147.32 124.25-9.03 16.9-16.35 34.88-21.73 53.27-3.73 12.76 4.51 28.26 17.76 31.27 13.61 3.1 27.28-4.09 31.27-17.76 2.03-6.97 4.33-13.85 6.96-20.62.6-1.54 1.39-3.08 1.86-4.66-.16.55-2.4 5.49-.6 1.45.34-.76.67-1.53 1.02-2.29 1.48-3.31 3.04-6.58 4.67-9.82 6.56-13.01 14.32-25.32 23.03-36.99.41-.55 2.18-2.93.07-.1-2.23 2.98.05-.02.63-.74 1.06-1.32 2.14-2.62 3.23-3.92 2.37-2.82 4.8-5.58 7.29-8.28 4.94-5.36 10.12-10.5 15.52-15.39 2.67-2.41 5.4-4.77 8.18-7.06 1.28-1.05 2.58-2.07 3.86-3.11 2.17-1.77-1.9 1.53-1.89 1.45.09-.66 2.8-2.09 3.3-2.46 5.72-4.18 11.62-8.1 17.71-11.72 6.72-4.01 13.66-7.67 20.77-10.94.98-.45 6.57-2.86 2.87-1.33-3.71 1.53 1.93-.77 2.93-1.16 4-1.56 8.05-2.99 12.13-4.33 12.61-4.13 22.13-17.77 17.76-31.27-4.08-12.59-17.74-22.19-31.27-17.76z"/><path d="m887.46 999.48c19.64-92.16 29.08-186.84 27.71-281.08-1.04-71.75-30.58-143.31-85.08-190.95-30.44-26.61-67.01-45.81-106.61-54.45-12.96-2.83-28.11 3.87-31.27 17.76-2.92 12.83 3.86 28.24 17.76 31.27 8.07 1.76 16.04 3.93 23.87 6.59 3.43 1.17 6.83 2.42 10.2 3.76.75.3 5.01 2.1.72.26-3.84-1.64-.89-.37.07.05 2.06.9 4.1 1.84 6.12 2.81 7.05 3.37 13.91 7.14 20.55 11.27 3.21 2 6.36 4.08 9.46 6.25 1.64 1.15 3.26 2.31 4.86 3.5.71.52 1.4 1.12 2.13 1.6-1.3-.86-4.65-3.7-1.47-1.11 12.26 9.97 23.55 20.95 33.53 33.22 1.25 1.54 4.92 6.57.16.11 1.06 1.44 2.15 2.85 3.2 4.3 2.5 3.44 4.9 6.95 7.21 10.53 4.27 6.63 8.19 13.48 11.75 20.52 1.74 3.44 3.4 6.93 4.97 10.46.37.83.73 1.67 1.1 2.5 1.28 2.91-2.15-5.24-.97-2.29.84 2.13 1.7 4.25 2.51 6.39 2.84 7.57 5.3 15.28 7.35 23.1 2.15 8.18 3.86 16.46 5.14 24.82.14.94.25 1.89.41 2.82-.05-.26-.84-6.74-.35-2.51.22 1.9.45 3.8.63 5.7.43 4.31.75 8.64.95 12.97 2.08 44.41-.51 89.57-4.32 133.82-1.06 12.31-2.3 24.6-3.73 36.87-.69 5.96-1.45 11.9-2.21 17.85-.8 6.23.59-4.19.03-.2-.22 1.56-.43 3.12-.65 4.68-.44 3.12-.89 6.23-1.35 9.34-3.69 24.79-8.17 49.45-13.4 73.95-2.77 12.97 3.83 28.1 17.76 31.27 12.78 2.91 28.31-3.85 31.27-17.76z"/><path d="m861.38 1099.59c10.14-32.98 18.83-66.38 26.08-100.11 2.79-12.97-3.85-28.1-17.76-31.27-12.8-2.91-28.29 3.85-31.27 17.76-7.25 33.73-15.94 67.13-26.08 100.11-3.91 12.71 4.64 28.29 17.76 31.27 13.77 3.14 27.09-4.14 31.27-17.76z"/><path d="m606.93 1549.08c42.77-47.91 81.94-99.19 116.69-153.19 38.22-59.38 70.7-122.1 98.07-187.17 15.02-35.7 28.26-72.13 39.69-109.13 3.93-12.71-4.66-28.29-17.76-31.27-13.79-3.14-27.07 4.15-31.27 17.76-9.97 32.26-21.29 64.09-34 95.37-1.52 3.74-3.06 7.46-4.61 11.18-.67 1.6-2.29 3.26.39-.93-.47.74-.75 1.76-1.09 2.57-.85 2-1.71 4-2.58 5.99-3.46 7.98-7.01 15.93-10.65 23.84-7.04 15.29-14.4 30.44-22.08 45.41-30.46 59.4-65.91 116.22-105.94 169.64-2.55 3.41-5.12 6.8-7.71 10.18-.51.67-1.03 1.34-1.55 2.01-1.92 2.51 3.23-4.15.36-.48-1.2 1.54-2.41 3.09-3.62 4.63-5.28 6.73-10.64 13.39-16.07 20-10.48 12.77-21.24 25.3-32.25 37.63-8.85 9.92-10.51 26.31 0 35.95 9.68 8.88 26.49 10.59 35.95 0z"/><path d="m417.98 1157.33c-13.06 21.57-27.07 42.55-42.04 62.84-1.7 2.3-3.41 4.6-5.13 6.89-1.03 1.36-2.05 2.72-3.09 4.07-.29.38-3.76 4.8-1.11 1.45 2.65-3.34-.81 1.03-1.11 1.41-.86 1.1-1.72 2.19-2.58 3.28-1.88 2.38-3.78 4.75-5.69 7.11-7.06 8.73-14.3 17.32-21.71 25.76-25.58 29.14-53.16 56.54-82.55 81.83-6.58 5.66-13.26 11.22-20.02 16.67-3.14 2.53-6.31 5.02-9.49 7.51-.51.4-1.02.79-1.53 1.19 7.22-5.69 3.04-2.35 1.39-1.09-1.45 1.11-2.91 2.21-4.36 3.31-5.5 4.14-9.78 8.29-11.68 15.19-1.68 6.09-.92 14.19 2.56 19.59 6.75 10.48 23.42 17.67 34.78 9.12 63.97-48.12 120.17-104.93 168.55-168.69 17.49-23.05 33.73-47.02 48.72-71.77 6.89-11.39 2.89-28.44-9.12-34.78-12.34-6.52-27.42-3.04-34.78 9.12z"/><path d="m473.81 1525.16c75.69-73.4 140.91-158.07 192.31-250.13 53.89-96.53 93.15-201.44 115.15-309.8 11.3-55.68 18.38-112.33 21.3-169.06.74-14.32 1.2-28.65 1.41-42.99.18-13.04.69-26.28-.36-39.29-2-24.67-9.32-49.09-23.38-69.67-27.37-40.07-74.68-64.98-123.7-59.12-26.53 3.18-50.13 13.05-71.16 29.49-17.66 13.81-32.09 32.46-41.06 53.01-5.15 11.8-9.24 23.66-11.2 36.42-2.17 14.09-2.14 27.74-2.21 41.94-.13 28.89-1.61 57.78-4.53 86.53-.66 6.46-1.39 12.91-2.19 19.35-.22 1.74-.44 3.48-.67 5.22-.78 6.12.85-5.93-.03.16-.54 3.72-1.06 7.44-1.63 11.15-2.01 13.16-4.34 26.27-6.98 39.32-5.05 24.96-11.26 49.68-18.64 74.06-3.46 11.43-7.18 22.77-11.13 34.03-4.41 12.56 5 28.37 17.76 31.27 14.21 3.24 26.55-4.31 31.27-17.76 16.52-47.05 28.67-95.58 36.35-144.86 4.36-27.96 7.59-56.11 9.4-84.35.91-14.23 1.49-28.48 1.73-42.73.22-13.16-.63-26.47.58-39.59.13-1.38.19-2.84.46-4.21-.04.22-1.09 6.74-.31 2.6.51-2.74.98-5.47 1.61-8.19 1.24-5.35 2.83-10.61 4.78-15.74.31-.81.75-1.69.99-2.53-2.02 7.01-1.31 3.04-.42 1.09 1.12-2.45 2.32-4.87 3.6-7.24 2.44-4.51 5.16-8.87 8.14-13.04.64-.9 1.36-1.76 1.97-2.68-4.19 6.33-1.9 2.46-.67.99 1.41-1.7 2.87-3.36 4.37-4.97 3.59-3.86 7.44-7.49 11.51-10.84 1.6-1.31 5.25-3.12-1.01.73 1.1-.68 2.13-1.57 3.2-2.31 1.8-1.25 3.63-2.45 5.5-3.59 4.53-2.78 9.28-4.88 13.99-7.28-7.81 3.98.34 0 2.56-.75 2.1-.7 4.22-1.34 6.35-1.92 2.37-.64 4.75-1.19 7.16-1.66 1.1-.22 2.21-.39 3.31-.6 4.47-.85-7.01.72-.05.02 4.98-.5 10-.65 15-.46 2.24.09 4.47.28 6.7.48 5.12.46-6.53-1.11-1.48-.23 1.73.3 3.47.58 5.19.94 4.68.97 9.3 2.26 13.8 3.87 2.28.81 8.48 4.33 1.13.31 2.44 1.33 5.06 2.36 7.51 3.68 3.96 2.14 7.78 4.52 11.43 7.14 1.6 1.14 4.63 4.23-1.04-.89.95.86 2.01 1.62 2.98 2.44 1.96 1.67 3.87 3.4 5.71 5.21 3.42 3.34 6.32 7.06 9.51 10.58-5.79-6.39.1.3 1.39 2.24 1.46 2.19 2.84 4.42 4.14 6.7 1.31 2.3 2.54 4.64 3.69 7.02.39.8.74 1.61 1.13 2.41 2.21 4.57-2.27-5.91-.46-1.16 1.93 5.08 3.67 10.18 4.98 15.47.55 2.23 1.04 4.48 1.46 6.74.25 1.35.35 2.79.7 4.12-1.89-7.31-.43-3.4-.2-1.19.65 6.2.69 12.41.72 18.64.08 13.51-.08 27.03-.47 40.54-.78 26.98-2.5 53.94-5.2 80.8-.65 6.44-1.35 12.87-2.11 19.29-.38 3.2-.77 6.41-1.18 9.61-.18 1.45-.38 2.91-.56 4.36-.38 2.83-.31 2.32.21-1.53-.16 1.16-.32 2.32-.48 3.48-1.85 13.29-3.96 26.55-6.3 39.77-9.21 51.84-22.25 102.99-39.09 152.87-4.24 12.57-8.73 25.05-13.44 37.45-2.26 5.93-4.57 11.84-6.94 17.73-1.08 2.68-2.16 5.35-3.26 8.02-.66 1.6-1.32 3.2-1.99 4.8-.44 1.07-.89 2.13-1.34 3.2 1.44-3.41 1.62-3.84.53-1.29-10.35 23.95-21.37 47.58-33.36 70.75-25.15 48.6-54.05 95.26-86.39 139.41-3.69 5.04-7.43 10.05-11.21 15.02-1.02 1.34-2.05 2.68-3.07 4.02-3.59 4.7 3.51-4.48-.12.16-2.05 2.62-4.1 5.24-6.16 7.85-7.74 9.76-15.65 19.39-23.73 28.87-15.22 17.87-31.03 35.23-47.39 52.05-7.33 7.53-14.78 14.95-22.32 22.27-9.56 9.27-10.01 26.76 0 35.95 10.28 9.43 25.75 9.9 35.95 0z"/><path d="m642.01 726.55c.36 32.47-.73 64.95-3.44 97.31-1.28 15.32-2.98 30.58-4.91 45.82-.44 3.46.73-5.28.25-1.84-.11.82-.22 1.64-.34 2.45-.26 1.9-.53 3.81-.81 5.71-.55 3.79-1.12 7.58-1.71 11.36-1.18 7.5-2.44 14.99-3.8 22.47-10.32 56.87-25.83 112.78-46.44 166.78-2.48 6.5-5.03 12.96-7.66 19.4-1.21 2.97-2.45 5.93-3.68 8.89-1.07 2.58 1.23-2.92 1.13-2.67-.4.9-.77 1.81-1.16 2.71-.77 1.8-1.55 3.6-2.34 5.4-5.34 12.24-10.94 24.37-16.8 36.37-11.64 23.83-24.3 47.15-37.93 69.9-13.06 21.8-27.01 43.06-41.79 63.73-3.65 5.1-7.35 10.17-11.1 15.2-1.73 2.32-3.47 4.63-5.22 6.93-.94 1.24-1.89 2.47-2.83 3.7-.52.68-2.07 2.68.37-.47 2.71-3.5.17-.22-.45.57-7.4 9.5-14.98 18.85-22.74 28.06-29.92 35.51-62.44 68.84-97.28 99.54-4.16 3.66-8.35 7.28-12.57 10.87-10.17 8.65-9.56 27.18 0 35.95 10.82 9.93 25.11 9.22 35.95 0 35.32-30.04 68.38-62.71 98.88-97.63 34.11-39.06 65.32-80.84 92.87-124.79 29.63-47.27 54.66-97.12 75.72-148.76 21.82-53.49 38.58-109.02 50.14-165.62 12.93-63.29 19.76-127.95 20.53-192.54.1-8.28.09-16.55 0-24.83-.15-13.29-11.59-26.04-25.42-25.42-13.65.61-25.58 11.17-25.42 25.42z"/></g><circle cx="1074.36" cy="1361.06" fill="#fff" r="437.88"/><circle cx="1074.36" cy="1361.06" fill="#b8a68d" r="378.56"/><path d="m1246.93 1205.86c-83.53 22.7-221.45 247.52-221.45 247.52-21.11-35.83-64.83-95.34-112.35-108.7-18.62-5.23-50.41-2.94-62.95 14.75-17.11 24.16 17.65 44.68 31.54 58.51 31.52 31.4 55.99 66.56 80.16 103.74 16.42 25.25 29.93 49.53 63.98 45.63 59.59-6.82 86.87-81.12 116.22-124.01 39.41-57.59 84.71-119.68 138.39-164.9 13.93-11.73 32.82-23.35 35.75-43.06 3.2-21.43-40.55-37.29-69.29-29.48z" fill="#fff"/></svg>