<svg enable-background="new 0 0 20.7 20.7" viewBox="0 0 20.7 20.7" xmlns="http://www.w3.org/2000/svg"><g fill="#347782"><path d="m.8 20.9c-.3 0-.5-.1-.7-.3-.3-.3-.4-.7-.2-1l1.3-4.1c-.9-1.6-1.4-3.4-1.4-5.2 0-5.8 4.7-10.6 10.6-10.6 2.8 0 5.5 1.1 7.5 3.1s3.1 4.6 3.1 7.5c0 5.8-4.7 10.6-10.6 10.6-1.8 0-3.6-.5-5.2-1.4l-4.1 1.3c-.1.1-.2.1-.3.1zm4.5-3.4c.2 0 .4.1.5.2 1.4.8 2.9 1.3 4.5 1.3 4.7 0 8.6-3.8 8.6-8.6 0-2.3-.9-4.4-2.5-6.1-1.6-1.6-3.8-2.5-6-2.5v-1 1c-4.7 0-8.6 3.8-8.6 8.6 0 1.6.4 3.2 1.3 4.5.2.2.2.6.1.8l-.9 2.6 2.7-.8z"/><path d="m11.4 10.4c0 .6-.5 1-1 1-.6 0-1-.5-1-1 0-.6.5-1 1-1 .5 0 1 .4 1 1z"/><path d="m15.4 10.4c0 .6-.5 1-1 1-.6 0-1-.5-1-1 0-.6.5-1 1-1 .6 0 1 .4 1 1z"/><path d="m7.3 10.4c0 .6-.5 1-1 1-.6 0-1-.5-1-1 0-.6.5-1 1-1 .6 0 1 .4 1 1z"/></g></svg>