<svg enable-background="new 0 0 507.2 507.2" viewBox="0 0 507.2 507.2" xmlns="http://www.w3.org/2000/svg"><circle cx="253.6" cy="253.6" fill="#32ba7c" r="253.6"/><path d="m188.8 368 130.4 130.4c108-28.8 188-127.2 188-244.8 0-2.4 0-4.8 0-7.2l-102.4-94.4z" fill="#0aa06e"/><g fill="#fff"><path d="m260 310.4c11.2 11.2 11.2 30.4 0 41.6l-23.2 23.2c-11.2 11.2-30.4 11.2-41.6 0l-101.6-102.4c-11.2-11.2-11.2-30.4 0-41.6l23.2-23.2c11.2-11.2 30.4-11.2 41.6 0z"/><path d="m348.8 133.6c11.2-11.2 30.4-11.2 41.6 0l23.2 23.2c11.2 11.2 11.2 30.4 0 41.6l-176 175.2c-11.2 11.2-30.4 11.2-41.6 0l-23.2-23.2c-11.2-11.2-11.2-30.4 0-41.6z"/></g></svg>