<svg enable-background="new 0 0 32 32" viewBox="0 0 32 32" xmlns="http://www.w3.org/2000/svg"><g fill="#b8a68d"><circle cx="9.339" cy="16.906" r="1.318"/><circle cx="14.13" cy="16.906" r="1.318"/><circle cx="18.92" cy="16.906" r="1.318"/><path d="m25.27 17.154c-.497 0-.9.403-.9.9v4.38c0 1.229-1.005 2.229-2.24 2.229h-4.73c-.241 0-.471.097-.64.268l-2.474 2.504c-.101.105-.198.107-.306-.004l-2.47-2.5c-.169-.171-.399-.268-.64-.268h-4.74c-1.229 0-2.23-1-2.23-2.229v-11.06c0-1.235 1-2.239 2.23-2.239h8.26c.497 0 .9-.403.9-.9s-.403-.9-.9-.9h-8.26c-2.222 0-4.03 1.813-4.03 4.04v11.061c0 2.222 1.808 4.03 4.03 4.03h4.364l2.202 2.229c.374.382.898.602 1.439.602h.001c.541 0 1.065-.22 1.434-.598l2.206-2.232h4.354c2.228 0 4.04-1.809 4.04-4.03v-4.38c-.001-.499-.403-.903-.9-.903z"/><path d="m28.948 6.63-2.972-2.972c-1.229-1.229-3.372-1.229-4.6 0l-2.973 2.973c-.614.614-.952 1.431-.952 2.3s.338 1.686.953 2.3l2.972 2.972v.001c.614.614 1.431.952 2.3.952s1.686-.338 2.3-.952l2.972-2.973c.614-.614.953-1.431.953-2.3s-.338-1.686-.953-2.301zm-1.273 3.327-2.972 2.973c-.549.55-1.506.548-2.054.001 0-.001 0-.001 0-.001l-2.973-2.973c-.274-.273-.425-.639-.425-1.026 0-.389.151-.753.425-1.027l2.973-2.973c.274-.273.639-.425 1.027-.425s.753.151 1.027.426l2.972 2.972c.274.274.425.639.425 1.027.001.387-.15.752-.425 1.026z"/><path d="m23.676 5.686c-.497 0-.9.403-.9.9v2.133c0 .497.403.9.9.9s.9-.403.9-.9v-2.133c0-.497-.403-.9-.9-.9z"/><path d="m23.676 10.195c-.497 0-.9.403-.9.9v.18c0 .497.403.9.9.9s.9-.403.9-.9v-.18c0-.496-.403-.9-.9-.9z"/></g></svg>