<svg viewBox="0 0 24 24" xmlns="http://www.w3.org/2000/svg"><path d="m16.3 4.2h-13.93c-1.31 0-2.37.85-2.37 1.9v16.01c0 1.05 1.06 1.9 2.37 1.9h13.93c1.31 0 2.37-.85 2.37-1.9v-16.02c0-1.05-1.07-1.9-2.37-1.9zm.71 17.9c0 .31-.32.57-.71.57h-13.94c-.39 0-.71-.26-.71-.57v-16.01c0-.31.32-.57.71-.57h13.93c.39 0 .71.26.71.57v16z"/><path d="m21.63 0h-13.93c-1.31 0-2.37.85-2.37 1.9 0 .37.37.66.83.66s.83-.29.83-.66c0-.31.32-.57.71-.57h13.93c.39 0 .71.26.71.57v16.01c0 .31-.32.57-.71.57-.46 0-.83.29-.83.66s.37.66.83.66c1.31 0 2.37-.85 2.37-1.9v-16c0-1.05-1.06-1.9-2.37-1.9z"/></svg>