<svg viewBox="0 0 58.95 77.18" xmlns="http://www.w3.org/2000/svg"><path d="m10.72 16.08c-1.78 0-3.22-1.44-3.22-3.22v-3.21c0-5.33 4.32-9.65 9.65-9.65h34.57c1.78 0 3.22 1.44 3.22 3.22s-1.44 3.22-3.22 3.22h-34.57c-1.78 0-3.22 1.44-3.22 3.22v3.22c0 1.77-1.43 3.21-3.2 3.21 0 0 0 0-.01 0z" fill="#80afaf"/><path d="m28.41 67.54h-11.25c-5.33 0-9.64-4.32-9.65-9.65v-6.43c0-1.78 1.44-3.22 3.21-3.22 1.78 0 3.22 1.44 3.22 3.21v6.43c0 1.78 1.44 3.22 3.22 3.22h11.26c1.78 0 3.22 1.44 3.22 3.22s-1.44 3.22-3.22 3.22z" fill="#80afaf"/><path d="m50.47.31-19.32 6.44c-2.6.9-4.35 3.35-4.36 6.11v57.89c0 3.55 2.88 6.43 6.43 6.43.7 0 1.39-.1 2.05-.31l19.33-6.44c2.6-.9 4.34-3.35 4.35-6.1v-57.9c-.03-3.59-2.98-6.47-6.56-6.43-.65 0-1.29.11-1.91.31z" fill="#347782"/><path d="m11.89 32.18 6.58-6.58c.6-.6.6-1.58 0-2.18s-1.58-.6-2.18 0l-6.58 6.58-6.58-6.58c-.6-.6-1.58-.6-2.18 0s-.6 1.58 0 2.18l6.58 6.58-6.58 6.58c-.6.6-.6 1.58 0 2.18s1.58.6 2.18 0l6.58-6.58 6.58 6.58c.6.6 1.58.6 2.18 0s.6-1.58 0-2.18z" fill="#e37d7d" stroke="#e37d7d"/></svg>