<svg enable-background="new 0 0 56 56" viewBox="0 0 56 56" xmlns="http://www.w3.org/2000/svg"><path d="m15 0h26c8.3 0 15 6.7 15 15v26c0 8.3-6.7 15-15 15h-26c-8.3 0-15-6.7-15-15v-26c0-8.3 6.7-15 15-15z" fill="#347782"/><path d="m-268-350h-23.5c-1.4 0-2.5 1.1-2.5 2.5v15c0 1.4 1.1 2.5 2.5 2.5h23.5c1.4 0 2.5-1.1 2.5-2.5v-15c0-1.4-1.1-2.5-2.5-2.5zm-.4 1.7-10.7 10.8c-.4.3-.9.3-1.3 0l-10.7-10.8zm-23.9 15.5v-14.4l7.2 7.2zm1.2 1.2 7.1-7.2 2.4 2.4c1 1 2.6 1 3.7 0l2.4-2.4 7.1 7.2zm23.9-1.2-7.2-7.2 7.2-7.2z" fill="#b8a68d" transform="translate(307.744 367.976)"/></svg>