<svg viewBox="0 0 512 512" xmlns="http://www.w3.org/2000/svg"><g fill="#b8a68d"><path d="m430.6 116.3h-27.1v-8.8c0-16.9-13.7-30.5-30.5-30.5h-79.9c1.6-4.2-.4-8.9-4.5-10.5-.2 0-.4-.2-.7-.2l-114.3-33.1c-16.2-4.7-33.1 4.6-37.8 20.8l-18.1 62.3h-29.2c-23.9 0-43.2 19.4-43.2 43.2v284.2c0 20 16.2 36.2 36.2 36.2h349.2c20 0 36.2-16.2 36.2-36.2 0 0 .2-223 0-291.2 0-20-16.2-36.2-36.2-36.2zm0 16c11.2 0 20.2 9.1 20.2 20.2v41.6c-11.1-9.8-33.5-7.1-47.3-7.4v-54.5h27.1zm-57.6-39.3c8 0 14.5 6.5 14.5 14.5v79.2h-126.2l27.1-93.8h84.6zm-222-34.5c2.3-7.7 10.3-12.1 18-9.9l106.6 30.9-31 107.3h-130.8zm-81.9 81.8c9.4-11.2 31.1-7.3 43.9-7.9l-15.8 54.5h-8.8c-15.1-.2-27.2-12.7-27-27.9.1-7 2.9-13.6 7.7-18.7zm361.5 323.7h-349.2c-11.2 0-20.2-9.1-20.2-20.2v-250.6c7.7 6.3 17.3 9.7 27.2 9.7h340c12.4 0 22.4 10 22.4 22.4v42.3h-79.9c-22.1 0-40 17.9-40 40v55.5c0 22.1 17.9 40 40 40h79.9v40.7c0 11.2-9.1 20.2-20.2 20.2zm20.2-77h-79.9c-13.2 0-24-10.8-24-24v-55.5c0-13.2 10.8-24 24-24h79.9z"/><path d="m399.7 369.7c19-.2 34.3-15.8 34.1-34.8-.2-18.8-15.4-33.9-34.1-34.1-19 .2-34.3 15.8-34.1 34.8.2 18.8 15.4 33.9 34.1 34.1zm0-52.9c10.2.2 18.3 8.6 18.1 18.8-.2 9.9-8.2 17.9-18.1 18.1-10.2-.2-18.3-8.6-18.1-18.8.2-9.9 8.2-17.9 18.1-18.1z"/><path d="m188.8 249.3c-53.5 0-96.8 43.4-96.9 96.9 5.3 128.5 188.5 128.5 193.8 0 0-53.5-43.4-96.8-96.9-96.9zm0 177.7c-44.6 0-80.8-36.2-80.9-80.9 4.4-107.3 157.3-107.3 161.8 0 0 44.6-36.2 80.8-80.9 80.9z"/><path d="m188.7 309.9c7.8 0 14.2 6.2 14.2 14.1 0 4.4 3.7 7.9 8.2 7.8 4.3 0 7.8-3.5 7.8-7.8 0-13.5-9.1-25.4-22.2-28.9v-13.2c0-4.4-3.6-8-8-8s-8 3.6-8 8v13.2c-16 4.5-25.3 21.2-20.7 37.2 3.7 12.9 15.4 21.8 28.8 21.9 7.8 0 14.1 6.4 14.1 14.2s-6.4 14.1-14.2 14.1-14.1-6.4-14.1-14.2c0-4.4-3.6-8-8-8s-8 3.6-8 8c0 13.5 9.1 25.4 22.2 28.9v13.2c0 4.4 3.6 8 8 8s8-3.6 8-8v-13.1c16-4.4 25.5-20.9 21.1-37-3.6-13.1-15.5-22.2-29.1-22.2-7.8-.1-14-6.5-13.9-14.4.1-7.6 6.3-13.8 13.9-13.9z"/></g></svg>