<svg enable-background="new 0 0 25.7 22" viewBox="0 0 25.7 22" xmlns="http://www.w3.org/2000/svg"><g fill="#fff" stroke="#b7a48c" transform="translate(.867 .895)"><path d="m23.8 5.4c-.5-2.4-2.1-4.4-4.4-5.2-2.5-.7-5.6 1.1-7.4 2.9-1.8-1.8-4.8-3.6-7.4-2.9-2.3.8-4 2.8-4.4 5.2-1.4 6.9 6.2 13.1 11.8 14.8 5.6-1.7 13.2-7.9 11.8-14.8z"/><path d="m23.8 5.4c-.5-2.4-2.1-4.4-4.4-5.2-2.5-.7-5.6 1.1-7.4 2.9-1.8-1.8-4.8-3.6-7.4-2.9-2.3.8-4 2.8-4.4 5.2-1.4 6.9 6.2 13.1 11.8 14.8 5.6-1.7 13.2-7.9 11.8-14.8z" stroke-miterlimit="10" stroke-width="1.708"/></g></svg>