<svg viewBox="0 0 24 24" xmlns="http://www.w3.org/2000/svg"><g fill="#b8a68d" fill-rule="evenodd"><path d="m15.55 2.25c-2.3-.5-4.8-.5-7.1 0-3 .7-5.4 3.1-6.1 6.2-.5 2.3-.5 4.8 0 7.1.7 3 3.1 5.4 6.2 6.1 2.3.5 4.8.5 7.1 0 3.1-.7 5.5-3.1 6.2-6.2.5-2.3.5-4.8 0-7.1-.8-3-3.2-5.4-6.3-6.1zm-7.5-1.8c2.6-.6 5.3-.6 7.9 0 3.8.9 6.7 3.8 7.6 7.6.6 2.6.6 5.3 0 7.9-.9 3.8-3.8 6.7-7.6 7.6-2.6.6-5.3.6-7.9 0-3.8-.9-6.7-3.8-7.6-7.6-.6-2.6-.6-5.3 0-7.9.9-3.8 3.9-6.8 7.6-7.6z"/><path d="m12.05 7.95c.5 0 .9.4.9.9v2.2h2.2c.5 0 .9.4.9.9s-.4.9-.9.9h-2.2v2.2c0 .5-.4.9-.9.9s-.9-.4-.9-.9v-2.2h-2.2c-.5 0-.9-.4-.9-.9s.4-.9.9-.9h2.2v-2.2c0-.5.4-.9.9-.9z"/></g></svg>