<svg enable-background="new 0 0 35.4 35.4" viewBox="0 0 35.4 35.4" xmlns="http://www.w3.org/2000/svg"><path d="m24.5 26.8c-.5.5-1.2.6-1.8.4l-19.2-8c-.5-.2-.9-.6-1-1.2s0-1.1.5-1.6c.2-.2.4-.3.6-.4l19.4-7.5c.6-.2 1.3-.1 1.8.4.4.5.6 1.1.4 1.7l-1.6 5.7c-.1.3-.3.7-.5.9s-.4.3-.6.4c.5.3.9.8 1 1.4l1.4 6.2c.2.5 0 1.2-.4 1.6z" fill="#fff"/><path d="m3.8 17.4c-.2.2-.1.6.2.7l19.1 7.9c.3.1.7-.2.6-.6l-1.4-6.2c-.1-.4-.4-.6-.8-.6l-13.3-.8c-.1 0-.3 0-.3-.1s.2-.1.3-.1l13.4-1c.3 0 .6-.3.7-.6l1.6-5.7c.1-.3-.2-.7-.6-.6l-19.3 7.6c-.1 0-.1 0-.2.1m-1.7-1.8c.3-.3.6-.5 1-.7l19.5-7.6c1.1-.4 2.3-.1 3.1.7s1 1.9.7 2.9l-1.6 5.7c-.1.4-.3.8-.5 1.1.2.3.3.6.4 1l1.4 6.2c.3 1 0 2.1-.8 2.8-.8.8-2 1.1-3.1.7h-.1l-19-8c-.9-.4-1.6-1.1-1.8-2.1s.1-2 .8-2.7z" fill="#347782"/></svg>