<svg enable-background="new 0 0 20 20" viewBox="0 0 20 20" xmlns="http://www.w3.org/2000/svg"><g fill="#347782" transform="translate(-2 -2)"><path d="m2.6 19c-.3-.6-.5-1.3-.5-2 0 .7.2 1.4.5 2zm6.4-8.6c1.3 0 2.4-1.1 2.4-2.4s-1.1-2.4-2.4-2.4-2.4 1.1-2.4 2.4c0 1.3 1.1 2.4 2.4 2.4z"/><path d="m16.2 2h-8.4c-3.6 0-5.8 2.2-5.8 5.8v8.4c0 1 .2 1.9.6 2.8.9 1.9 2.7 3 5.2 3h8.4c3.6 0 5.8-2.2 5.8-5.8v-8.4c0-3.6-2.2-5.8-5.8-5.8zm4.2 10.5c-.8-.7-2-.7-2.8 0l-4.2 3.6c-.8.7-2 .7-2.8 0l-.3-.3c-.8-.6-1.8-.7-2.6-.1l-3.7 2.5c-.2-.6-.4-1.3-.3-2v-8.4c-.2-2.8 1.3-4.3 4.1-4.3h8.4c2.8 0 4.3 1.5 4.3 4.3v4.8z"/></g></svg>