<svg viewBox="0 0 512 512" xmlns="http://www.w3.org/2000/svg"><g fill="#b8a68d"><path d="m290.21 360.73c-5.23.49-10.49-.69-15.01-3.38-3.3-3.39-4.89-8.1-4.3-12.8.12-3.91.59-7.81 1.4-11.64.78-4.39 1.79-8.74 3.02-13.03l13.73-47.24c1.42-4.66 2.35-9.46 2.79-14.31 0-5.24.7-8.84.7-10.94.29-9.33-3.69-18.29-10.82-24.32-8.77-6.73-19.69-10.04-30.72-9.31-7.9.12-15.75 1.41-23.27 3.84-8.22 2.56-16.87 5.62-25.95 9.19l-3.96 15.36c2.68-.93 5.93-1.98 9.66-3.14 3.55-1.05 7.23-1.6 10.94-1.63 5.2-.56 10.43.71 14.78 3.61 2.96 3.53 4.34 8.11 3.84 12.68-.01 3.91-.44 7.81-1.28 11.64-.82 4.07-1.86 8.38-3.14 12.92l-13.85 47.48c-1.12 4.41-2.01 8.88-2.68 13.38-.54 3.86-.82 7.74-.82 11.64-.06 9.4 4.24 18.29 11.64 24.09 8.9 6.84 19.98 10.23 31.18 9.54 7.89.16 15.75-.98 23.27-3.38 6.59-2.25 15.4-5.47 26.42-9.66l3.72-14.66c-2.98 1.24-6.06 2.25-9.19 3.02-3.97.91-8.04 1.26-12.1 1.05z"/><path d="m304.76 136.73c-6.33-5.82-14.68-8.94-23.27-8.73-8.59-.19-16.93 2.93-23.27 8.73-11.63 10.03-12.93 27.59-2.9 39.22.89 1.04 1.86 2.01 2.9 2.9 13.25 11.85 33.29 11.85 46.55 0 11.63-10.13 12.85-27.77 2.72-39.4-.84-.97-1.75-1.88-2.72-2.72z"/><path d="m256 0c-141.39 0-256 114.61-256 256s114.61 256 256 256 256-114.61 256-256-114.61-256-256-256zm0 488.73c-128.53 0-232.73-104.19-232.73-232.73s104.2-232.73 232.73-232.73 232.73 104.2 232.73 232.73-104.19 232.73-232.73 232.73z"/></g></svg>