<svg enable-background="new 0 0 56 56" viewBox="0 0 56 56" xmlns="http://www.w3.org/2000/svg"><path d="m15 0h26c8.3 0 15 6.7 15 15v26c0 8.3-6.7 15-15 15h-26c-8.3 0-15-6.7-15-15v-26c0-8.3 6.7-15 15-15z" fill="#347782"/><g fill="#b8a68d"><path d="m37.4 16.5c-1.2 0-2.1.9-2.1 2.1s.9 2.1 2.1 2.1 2.1-.9 2.1-2.1c0-1.1-.9-2.1-2.1-2.1z"/><path d="m28.1 19.2c-4.8 0-8.8 3.9-8.8 8.8 0 4.8 3.9 8.8 8.8 8.8 4.8 0 8.8-3.9 8.8-8.8 0-4.8-3.9-8.8-8.8-8.8zm0 14.4c-3.1 0-5.6-2.5-5.6-5.6s2.5-5.6 5.6-5.6 5.6 2.5 5.6 5.6-2.5 5.6-5.6 5.6z"/><path d="m35.1 45.8h-14.2c-5.9 0-10.7-4.8-10.7-10.7v-14.2c0-5.9 4.8-10.7 10.7-10.7h14.2c5.9 0 10.7 4.8 10.7 10.7v14.2c0 5.9-4.8 10.7-10.7 10.7zm-14.2-32.3c-4.1 0-7.3 3.3-7.3 7.3v14.2c0 4.1 3.3 7.3 7.3 7.3h14.2c4.1 0 7.3-3.3 7.3-7.3v-14.1c0-4.1-3.3-7.3-7.3-7.3h-14.2z"/></g></svg>