<svg viewBox="0 0 24.4 24.4" xmlns="http://www.w3.org/2000/svg"><path d="m23.29 1.81h-10.93l-8.13-1.77c-.57-.12-1.04.06-1.04.41v1.36h-2.08c-.61 0-1.11.36-1.11.81v19.16c0 .44.5.81 1.11.81h2.08v1.37c0 .35.47.53 1.04.41l8.16-1.78h10.9c.61 0 1.11-.36 1.11-.81v-19.16c0-.44-.5-.81-1.11-.81zm-20.1 20.48h-2.08c-.42 0-.78-.23-.78-.51v-19.16c0-.28.36-.51.78-.51h2.08v20.19zm5.51-18.35 9.18 1.78c.58.11 1.97.27 1.97.62v11.66c0 .35-1.39.55-1.97.66l-1.14.22c-1.07-1.18-1.21-1.4-4.48-4.98 0 0 0-.02 0-.03h.02.45c1.92.07 3.54-1.27 3.62-2.98.08-1.72-1.41-3.17-3.33-3.24-.1 0-.19 0-.29 0-.02 0 .28 0-5.09 0v-3.28c0-.35.48-.54 1.06-.43zm0 16.52c-.58.11-1.05-.08-1.05-.43v-11.33h5.17c1.28-.03 2.34.87 2.37 2.02.03 1.14-.98 2.09-2.25 2.12-.04 0-.08 0-.12 0 0 0 .2 0-3.02 0-.01 0-.02.01-.02.02v.01c5.07 5.57 5.54 6.09 5.57 6.13s.07.07.12.09c.03.01.06.02.08.03l-6.86 1.33zm15.37 1.32c0 .28-.36.51-.78.51h-9.55l8.31-1.81c.57-.12 1.04-.51 1.04-.86v-14.84c0-.35-.47-.74-1.04-.86l-8.33-1.81h9.57c.42 0 .78.23.78.51v19.17z" fill="#c3b396"/></svg>