<svg enable-background="new 0 0 512 512" viewBox="0 0 512 512" xmlns="http://www.w3.org/2000/svg"><path d="m378 223.2c12.3-8.2 21.1-20.6 25-35.1 4.3-15.9 2.1-32.4-6.1-46.6s-21.4-24.3-37.3-28.5c-14.5-3.9-29.6-2.4-42.9 4.1l-34.3-59.3c-7.3-12.6-20.4-20-34.9-19.7-14.6.3-27.4 8.1-34.2 21-4.8 9.1-9.3 18.5-14.1 28.4-19.4 40.6-41.4 86.6-89.1 114.1l-61.2 35.3c-20.8 12.2-35.9 31.9-42.2 55.5s-3.1 48.2 9 69.3c16.9 29.3 47.7 45.7 79.3 45.7 11.5 0 23.2-2.2 34.3-6.7l42.8 74.1c8.8 15.3 25 23.9 41.5 23.9 8.1 0 16.3-2.1 23.8-6.4 11-6.4 18.9-16.7 22.2-29 3.3-12.4 1.6-25.2-4.7-36.3l-42.2-73c44.3-21.1 90.8-17.5 132.2-14.3 11 .9 21.4 1.7 31.7 2 14.6.5 27.8-6.6 35.3-19.1s7.7-27.5.4-40.1zm-24.8-86c9.4 2.5 17.3 8.5 22.1 16.9 9.3 16.2 4.8 36.6-9.8 47.4l-36.1-62.6c7.4-3.2 15.8-3.9 23.8-1.7zm-258.3 245.2c-22.9 0-45.3-11.9-57.6-33.2-8.8-15.3-11.1-33.1-6.5-50.3s15.5-31.5 30.8-40.3l50.4-29.1 66.4 114.9-50.4 29.1c-10.4 6-21.8 8.9-33.1 8.9zm140.5 74.3c-1.6 5.9-5.3 10.8-10.6 13.9-10.9 6.3-24.9 2.5-31.2-8.4l-42.3-73.3 39.5-22.8 42.3 73.3c3.1 5.3 3.9 11.4 2.3 17.3zm155.1-146.9c-2.8 4.7-7.4 7.2-13 7-9.7-.4-19.9-1.1-30.7-2-45.2-3.5-96-7.4-146.6 17.5l-66.8-115.6c46.9-31.4 68.9-77.4 88.5-118.3 4.7-9.7 9.1-18.9 13.6-27.5 2.6-4.9 7-7.6 12.6-7.7h.3c5.4 0 9.8 2.6 12.5 7.3l129.7 224.5c2.8 4.8 2.7 10-.1 14.8zm-32.5-245.5 25.8-44.7c3.5-6 11.1-8 17.1-4.6 6 3.5 8 11.1 4.6 17.1l-25.8 44.7c-2.3 4-6.5 6.3-10.8 6.3-2.1 0-4.3-.5-6.2-1.7-6.1-3.4-8.1-11.1-4.7-17.1zm116.1 47.2-45.8 26.4c-2 1.1-4.1 1.7-6.2 1.7-4.3 0-8.5-2.2-10.8-6.3-3.5-6-1.4-13.6 4.6-17.1l45.8-26.4c6-3.5 13.6-1.4 17.1 4.6s1.2 13.7-4.7 17.1zm34.4 89.9c0 6.9-5.6 12.5-12.5 12.5h-51.6c-6.9 0-12.5-5.6-12.5-12.5s5.6-12.5 12.5-12.5h51.6c6.9 0 12.5 5.6 12.5 12.5z" fill="#b8a68d"/></svg>