<svg enable-background="new 0 0 19.4 24.3" viewBox="0 0 19.4 24.3" xmlns="http://www.w3.org/2000/svg"><path clip-rule="evenodd" d="m9.5 1.7c-3.3 0-5.9 2.6-5.9 5.9v2.3c0 .7-.2 1.5-.6 2.1-.2.4-.5.8-.7 1.2-.1.1-.2.3-.3.4-.3.4-.4.9-.4 1.5 0 1.4 1 2.5 2.3 2.7 1.8.3 3.7.4 5.5.5 1.8 0 3.7-.2 5.5-.5 1.3-.2 2.3-1.4 2.3-2.7 0-.5-.1-1-.4-1.5l-.3-.4c-.3-.4-.5-.8-.7-1.2-.3-.6-.5-1.4-.6-2.1v-2.3c.2-3.3-2.5-5.9-5.7-5.9zm-7.6 5.9c-.1-4.2 3.2-7.7 7.4-7.8s7.6 3.2 7.7 7.4v.3 2.3c0 .5.2.9.4 1.4.2.4.4.7.6 1 .1.2.2.3.3.5.4.7.6 1.5.6 2.3 0 2.2-1.6 4-3.7 4.4-1.9.3-3.8.5-5.7.5s-3.8-.2-5.7-.5c-2.2-.3-3.8-2.2-3.8-4.3 0-.8.2-1.6.6-2.3.1-.2.2-.3.3-.5.2-.4.4-.7.6-1 .2-.4.4-.9.4-1.4zm10.4 13.3c-.4-.3-.9-.2-1.1.2-.6.9-1.9 1.2-2.8.6-.2-.2-.4-.3-.6-.6-.3-.4-.8-.5-1.1-.2-.4.3-.5.8-.2 1.1 1.1 1.7 3.4 2.2 5.1 1 .4-.3.8-.6 1-1 .2-.3.1-.8-.3-1.1z" fill="#b7a48c" fill-rule="evenodd" transform="translate(.25 .25)"/></svg>