<svg enable-background="new 0 0 20.6 24" viewBox="0 0 20.6 24" xmlns="http://www.w3.org/2000/svg"><g fill="#347782" transform="translate(-4 -2)"><path d="m20.3 26c2.4 0 4.3-1.9 4.3-4.3v-15.4c0-2.4-1.9-4.3-4.3-4.3h-12c-2.4 0-4.3 1.9-4.3 4.3v15.4c0 2.4 1.9 4.3 4.3 4.3zm-14.6-19.7c0-1.4 1.2-2.6 2.6-2.6h12c1.4 0 2.6 1.2 2.6 2.6v15.4c0 1.4-1.2 2.6-2.6 2.6h-12c-1.4 0-2.6-1.2-2.6-2.6z"/><path d="m12.6 14.9h6.9c.5 0 .9-.4.9-.9s-.4-.9-.9-.9h-6.9c-.5 0-.9.4-.9.9s.4.9.9.9zm0-4.3h6.9c.5 0 .9-.4.9-.9s-.4-.9-.9-.9h-6.9c-.5 0-.9.4-.9.9s.4.9.9.9zm0 8.5h6.9c.5 0 .9-.4.9-.9s-.4-.9-.9-.9h-6.9c-.5 0-.9.4-.9.9s.4.9.9.9zm-3.4-8.5c.5 0 .9-.4.9-.9s-.4-.9-.9-.9c-.5 0-.9.4-.9.9s.4.9.9.9zm0 4.3c.5 0 .9-.4.9-.9s-.4-.9-.9-.9c-.5 0-.9.4-.9.9s.4.9.9.9zm0 4.2c.5 0 .9-.4.9-.9s-.4-.9-.9-.9c-.5 0-.9.4-.9.9 0 .6.4.9.9.9z"/></g></svg>