<svg viewBox="0 0 1024 1024" xmlns="http://www.w3.org/2000/svg"><g fill="#b8a68d"><path d="m354.3 510.6-1.4 159.6 159.6-1.4 305.2-305.2s107.4-107.5 107.4-107.5c.4-.4.8-.8 1.1-1.2.3-.3.7-.7 1-1 .5-.6 1-1.2 1.5-1.8.1-.2.3-.3.5-.5.6-.7 1.2-1.5 1.7-2.2 0 0 0-.1.1-.2 17.4-23.5 15.5-57-5.8-78.5l-73-73-.2-.2c-23.5-23.2-61.7-23.1-85.2.4l-107.5 107.5s-305.3 305.3-305.3 305.3zm124.8 78.4-45.4.4.4-45.4 282.1-282.1 45 45.1-282.1 282.1zm338.7-338.6-45-45.1 37.1-37.1 45 45-37.2 37.2z"/><path d="m863.2 443.9v400.3c0 10.7-9 19.7-19.7 19.7h-663c-10.7 0-19.7-9-19.7-19.7v-663c0-10.7 9-19.7 19.7-19.7h400.3v-80h-400.3c-55 0-99.7 44.7-99.7 99.7v663c0 55 44.7 99.7 99.7 99.7h663c55 0 99.7-44.7 99.7-99.7v-400.3z"/></g></svg>