<svg clip-rule="evenodd" fill-rule="evenodd" height="8.467mm" image-rendering="optimizeQuality" shape-rendering="geometricPrecision" text-rendering="geometricPrecision" viewBox="0 0 846.66 846.66" width="8.467mm" xmlns="http://www.w3.org/2000/svg"><path d="m490.71 98.77 84.87 144.97 164.15 35.93c58.47 12.8 81.5 83.57 41.73 128.28l-111.7 125.57 16.55 167.19c5.89 59.54-54.36 103.18-109.03 79.24l-153.95-67.43-153.95 67.43c-54.67 23.94-114.92-19.69-109.03-79.24l16.56-167.18-111.7-125.58c-39.79-44.71-16.75-115.48 41.72-128.28l164.15-35.93 84.87-144.97c30.25-51.66 104.54-51.64 134.76 0zm55.29 172.38-89.25-152.46c-15.01-25.64-51.82-25.64-66.83 0l-88.51 151.17c-2.57 5.24-7.42 9.3-13.57 10.63l-172.58 37.77c-28.98 6.35-40.29 41.27-20.57 63.45l117.42 132-.03.03c3.52 3.96 5.45 9.33 4.89 15.02l-17.4 175.81c-2.92 29.5 26.8 51.19 54.06 39.25l161.83-70.88c4.85-2.1 10.52-2.27 15.75 0l161.82 70.88c27.27 11.94 56.98-9.75 54.07-39.25l-17.29-174.61c-.9-5.65.65-11.65 4.75-16.25l117.41-132c19.73-22.18 8.42-57.1-20.57-63.45l-172.58-37.77.01-.06c-5.2-1.12-9.92-4.34-12.83-9.28z" fill="#b8a68d" fill-rule="nonzero"/></svg>