<svg viewBox="0 0 426.1 476" xmlns="http://www.w3.org/2000/svg"><g fill="#b8a68d"><path d="m265 421.7c-7.6 16.9-12.6 35.1-14.6 54.3l160.9-34.2c7.6-16.9 12.6-35.1 14.6-54.3z"/><path d="m300.6 260.5 110.8-23.5c7.6-16.9 12.6-35.1 14.6-54.3l-125.3 26.6v-184.3c-19.2 10.8-36.3 25.1-50.1 42.1v152.8l-50.1 10.6v-230.5c-19.2 10.8-36.3 25.1-50.1 42.1v199.2l-112.1 23.8c-7.6 16.9-12.6 35.1-14.6 54.3l126.7-26.9v64.5l-135.8 28.9c-7.6 16.9-12.6 35.1-14.6 54.3l142.1-30.2c11.6-2.4 21.5-9.2 28-18.7l26.1-38.6c2.7-4 4.3-8.8 4.3-14v-56.8l50.1-10.6v102.5l160.9-34.2c7.6-16.9 12.6-35.1 14.6-54.3l-125.3 26.7v-51.2z"/></g></svg>