<svg enable-background="new 0 0 24.1 24.1" viewBox="0 0 24.1 24.1" xmlns="http://www.w3.org/2000/svg"><g fill="#b7a48c" stroke="#b7a48c" stroke-width=".5" transform="translate(.25 .25)"><path d="m11.8 6.5c-3 0-5.4 2.4-5.4 5.4s2.4 5.4 5.4 5.4c.5 0 1.1-.1 1.6-.2.5-.2.7-.7.6-1.2-.2-.5-.7-.7-1.1-.6-1.8.6-3.8-.4-4.4-2.3-.6-2 .4-3.9 2.3-4.5 1.8-.6 3.8.4 4.4 2.3.2.7.2 1.4 0 2-.1.5.2 1 .7 1.1s1-.1 1.1-.6c.8-2.8-.8-5.8-3.6-6.6-.6-.2-1.1-.2-1.6-.2z"/><path d="m20.9 8.6h-.5c-.1 0-.2-.1-.3-.2-.1-.1 0-.2.1-.3l.3-.3c1.1-1.1 1.1-2.8 0-3.9l-.7-.7c-1.1-1.1-2.8-1.1-3.9 0l-.3.3c-.1.1-.2.1-.3.1-.1 0-.2-.2-.2-.3v-.5c0-1.5-1.2-2.8-2.8-2.8h-.9c-1.6 0-2.8 1.2-2.8 2.8v.5c0 .1-.1.2-.2.3-.1 0-.3 0-.4-.1l-.3-.4c-1.1-1.1-2.8-1.1-3.9 0l-.7.7c-1.1 1.1-1.1 2.8 0 3.9l.4.3c.1.1.1.2.1.3 0 .1-.2.2-.3.2h-.5c-1.6.1-2.8 1.3-2.8 2.9v.9c0 1.5 1.2 2.8 2.8 2.8h.5c.1 0 .2.1.3.2.1.1 0 .2-.1.3l-.3.3c-1.1 1.1-1.1 2.8 0 3.9l.7.7c1.1 1.1 2.8 1.1 3.9 0l.2-.3c.1-.1.2-.1.3-.1.1 0 .2.2.2.3v.5c0 1.5 1.2 2.8 2.8 2.8h.9c1.5 0 2.8-1.2 2.8-2.8v-.5c0-.1.1-.2.2-.3.1-.1.2 0 .3.1l.3.3c1.1 1.1 2.8 1.1 3.9 0l.7-.7c1.1-1.1 1.1-2.8 0-3.9l-.3-.3c-.1-.1-.1-.2-.1-.3 0-.1.2-.2.3-.2h.5c1.5 0 2.8-1.2 2.8-2.8v-.9c0-1.6-1.2-2.8-2.7-2.8zm.9 3.7c0 .5-.4.9-.9.9h-.5c-.9 0-1.7.5-2 1.3-.3.8-.2 1.7.5 2.4l.3.3c.4.4.4.9 0 1.3l-.7.7c-.4.4-.9.4-1.3 0l-.3-.3c-.6-.6-1.5-.8-2.4-.5-.8.3-1.3 1.1-1.3 2v.5c0 .5-.4.9-.9.9h-.9c-.5 0-.9-.4-.9-.9v-.5c0-.9-.5-1.7-1.3-2-.3-.1-.6-.2-.8-.2-.6 0-1.1.2-1.5.6l-.3.3c-.4.4-.9.4-1.3 0l-.7-.7c-.4-.4-.4-.9 0-1.3l.3-.3c.6-.6.8-1.5.5-2.4-.3-.8-1.1-1.3-2-1.3h-.6c-.5 0-.9-.4-.9-.9v-.9c0-.5.4-.9.9-.9h.5c.9 0 1.7-.5 2-1.3.3-.8.2-1.7-.5-2.4l-.4-.3c-.3-.4-.3-.9 0-1.3l.7-.7c.4-.4.9-.4 1.3 0l.3.3c.6.6 1.5.8 2.4.5.8-.3 1.3-1.1 1.3-2v-.4c0-.5.4-.9.9-.9h.9c.5 0 .9.4.9.9v.5c0 .9.5 1.7 1.3 2 .8.3 1.7.2 2.4-.5l.3-.3c.4-.4.9-.4 1.3 0l.6.7c.4.4.4.9 0 1.3l-.3.3c-.6.6-.8 1.5-.5 2.4.3.8 1.1 1.3 2 1.3h.5c.5 0 .9.4.9.9z"/></g></svg>