<svg enable-background="new 0 0 10 11.6" viewBox="0 0 10 11.6" xmlns="http://www.w3.org/2000/svg"><g fill="#579fa3" transform="translate(-276.37 -191.674)"><path d="m281.4 203.3c-.1 0-.2 0-.3-.1-.2-.2-4.7-4.6-4.7-7 .3-2.8 2.8-4.8 5.5-4.5 2.4.2 4.2 2.1 4.5 4.5 0 2.4-4.5 6.8-4.7 7-.1.1-.2.1-.3.1zm0-10.8c-2.2-.1-4 1.6-4.1 3.7 0 1.6 2.7 4.7 4.1 6.1 1.4-1.4 4.1-4.5 4.1-6.1-.1-2.2-2-3.8-4.1-3.7z"/><path d="m281.4 197.8c-1.1-.1-1.9-1.1-1.8-2.2s1.1-1.9 2.2-1.8c1 .1 1.8 1 1.8 2 0 1.1-1 2-2.2 2zm0-3.3c-.7.1-1.2.7-1.1 1.4s.7 1.2 1.4 1.1c.6-.1 1.1-.6 1.1-1.2-.1-.8-.7-1.3-1.4-1.3z"/></g></svg>