<svg height="12.5" viewBox="0 0 12.978 12.5" width="12.978" xmlns="http://www.w3.org/2000/svg"><path d="m392.768 6.3-1.23 1.2a1.606 1.606 0 0 0 -.462 1.422l.29 1.693a1.607 1.607 0 0 1 -2.331 1.694l-1.521-.8a1.6 1.6 0 0 0 -1.5 0l-1.521.8a1.607 1.607 0 0 1 -2.331-1.694l.29-1.693a1.606 1.606 0 0 0 -.462-1.422l-1.23-1.2a1.607 1.607 0 0 1 .891-2.74l1.7-.247a1.607 1.607 0 0 0 1.21-.879l.764-1.534a1.607 1.607 0 0 1 2.882 0l.76 1.541a1.607 1.607 0 0 0 1.21.879l1.7.247a1.607 1.607 0 0 1 .891 2.74z" fill="#e0e37d" transform="translate(-380.277)"/></svg>