<svg viewBox="0 0 25.3 25.3" xmlns="http://www.w3.org/2000/svg"><g fill="#579fa3" stroke="#579fa3"><path d="m23.2 10.3c-.4 0-.7-.2-.8-.6-.2-.6-.4-1.2-.8-1.8-.2-.3-.1-.7.1-1 .6-.6.6-1.6 0-2.3l-1-1c-.6-.6-1.6-.6-2.3 0-.3.3-.7.3-1 .1-.6-.3-1.2-.6-1.8-.8-.3-.1-.6-.4-.6-.8 0-.9-.7-1.6-1.6-1.6h-1.5c-.9 0-1.6.7-1.6 1.6 0 .4-.2.7-.6.8-.6.2-1.2.4-1.8.8-.3.2-.7.1-1-.1-.6-.6-1.6-.6-2.3 0l-1 1c-.6.6-.6 1.6 0 2.3.3.3.3.7.1 1-.3.6-.6 1.2-.8 1.8-.1.3-.4.6-.8.6-.9 0-1.6.7-1.6 1.6v1.5c0 .9.7 1.6 1.6 1.6.4 0 .7.2.8.6.2.6.4 1.2.8 1.8.2.3.1.7-.1 1-.6.6-.6 1.6 0 2.3l1 1c.6.6 1.6.6 2.3 0 .3-.3.7-.3 1-.1.6.3 1.2.6 1.8.8.3.1.6.4.6.8 0 .9.7 1.6 1.6 1.6h1.5c.9 0 1.6-.7 1.6-1.6 0-.4.2-.7.6-.8.6-.2 1.2-.4 1.8-.8.3-.2.7-.1 1 .1.6.6 1.6.6 2.3 0l1-1c.6-.6.6-1.6 0-2.3-.3-.3-.3-.7-.1-1 .3-.6.6-1.2.8-1.8.1-.3.4-.6.8-.6.9 0 1.6-.7 1.6-1.6v-1.5c0-.9-.7-1.6-1.6-1.6zm.8 3.1c0 .4-.4.8-.8.8-.7 0-1.3.5-1.5 1.2-.2.6-.4 1.1-.7 1.7s-.2 1.4.3 1.9c.3.3.3.8 0 1.1l-1 1c-.3.3-.8.3-1.1 0-.5-.5-1.3-.6-1.9-.3-.5.3-1.1.5-1.7.7-.7.2-1.2.8-1.2 1.5 0 .4-.4.8-.8.8h-1.5c-.4 0-.8-.4-.8-.8 0-.7-.5-1.3-1.2-1.5-.6-.2-1.1-.4-1.7-.7-.2-.1-.5-.2-.8-.2-.4 0-.8.2-1.1.5s-.8.3-1.1 0l-1-1c-.3-.3-.3-.8 0-1.1.5-.5.6-1.3.3-1.9-.3-.5-.5-1.1-.7-1.7-.2-.7-.8-1.2-1.5-1.2-.4 0-.8-.4-.8-.8v-1.5c0-.4.4-.8.8-.8.7 0 1.3-.5 1.5-1.2.2-.6.4-1.1.7-1.7s.2-1.4-.3-1.9c-.3-.3-.3-.8 0-1.1l1-1c.3-.3.8-.3 1.1 0 .5.5 1.3.6 1.9.3.5-.3 1.1-.5 1.7-.7.7-.2 1.2-.8 1.2-1.5 0-.4.4-.8.8-.8h1.5c.4 0 .8.4.8.8 0 .7.5 1.3 1.2 1.5.6.2 1.1.4 1.7.7s1.4.2 1.9-.3c.3-.3.8-.3 1.1 0l1 1c.3.3.3.8 0 1.1-.5.5-.6 1.3-.3 1.9.3.5.5 1.1.7 1.7.2.7.8 1.2 1.5 1.2.4 0 .8.4.8.8z"/><path d="m14.5 18.5v-3.5c1.8-.9 2.4-3.1 1.5-4.9-.3-.7-.9-1.2-1.5-1.5-.2-.1-.4 0-.5.2v2.7l-1.1.8-1.2-.8v-2.5c0-.2-.2-.4-.4-.4h-.2c-1.8.9-2.5 3.1-1.5 4.9.3.7.9 1.2 1.5 1.5v3.5c-3.2-.9-5.1-4.3-4.1-7.5.9-3.2 4.3-5.1 7.5-4.1s5.1 4.3 4.1 7.5c-.6 2-2.1 3.5-4.1 4.1z"/><path d="m23.2 10.3c-.4 0-.7-.2-.8-.6-.2-.6-.4-1.2-.8-1.8-.2-.3-.1-.7.1-1 .6-.6.6-1.6 0-2.3l-1-1c-.6-.6-1.6-.6-2.3 0-.3.3-.7.3-1 .1-.6-.3-1.2-.6-1.8-.8-.3-.1-.6-.4-.6-.8 0-.9-.7-1.6-1.6-1.6h-1.5c-.9 0-1.6.7-1.6 1.6 0 .4-.2.7-.6.8-.6.2-1.2.4-1.8.8-.3.2-.7.1-1-.1-.6-.6-1.6-.6-2.3 0l-1 1c-.6.6-.6 1.6 0 2.3.3.3.3.7.1 1-.3.6-.6 1.2-.8 1.8-.1.3-.4.6-.8.6-.9 0-1.6.7-1.6 1.6v1.5c0 .9.7 1.6 1.6 1.6.4 0 .7.2.8.6.2.6.4 1.2.8 1.8.2.3.1.7-.1 1-.6.6-.6 1.6 0 2.3l1 1c.6.6 1.6.6 2.3 0 .3-.3.7-.3 1-.1.6.3 1.2.6 1.8.8.3.1.6.4.6.8 0 .9.7 1.6 1.6 1.6h1.5c.9 0 1.6-.7 1.6-1.6 0-.4.2-.7.6-.8.6-.2 1.2-.4 1.8-.8.3-.2.7-.1 1 .1.6.6 1.6.6 2.3 0l1-1c.6-.6.6-1.6 0-2.3-.3-.3-.3-.7-.1-1 .3-.6.6-1.2.8-1.8.1-.3.4-.6.8-.6.9 0 1.6-.7 1.6-1.6v-1.5c0-.9-.7-1.6-1.6-1.6zm.8 3.1c0 .4-.4.8-.8.8-.7 0-1.3.5-1.5 1.2-.2.6-.4 1.1-.7 1.7s-.2 1.4.3 1.9c.3.3.3.8 0 1.1l-1 1c-.3.3-.8.3-1.1 0-.5-.5-1.3-.6-1.9-.3-.5.3-1.1.5-1.7.7-.7.2-1.2.8-1.2 1.5 0 .4-.4.8-.8.8h-1.5c-.4 0-.8-.4-.8-.8 0-.7-.5-1.3-1.2-1.5-.6-.2-1.1-.4-1.7-.7-.2-.1-.5-.2-.8-.2-.4 0-.8.2-1.1.5s-.8.3-1.1 0l-1-1c-.3-.3-.3-.8 0-1.1.5-.5.6-1.3.3-1.9-.3-.5-.5-1.1-.7-1.7-.2-.7-.8-1.2-1.5-1.2-.4 0-.8-.4-.8-.8v-1.5c0-.4.4-.8.8-.8.7 0 1.3-.5 1.5-1.2.2-.6.4-1.1.7-1.7s.2-1.4-.3-1.9c-.3-.3-.3-.8 0-1.1l1-1c.3-.3.8-.3 1.1 0 .5.5 1.3.6 1.9.3.5-.3 1.1-.5 1.7-.7.7-.2 1.2-.8 1.2-1.5 0-.4.4-.8.8-.8h1.5c.4 0 .8.4.8.8 0 .7.5 1.3 1.2 1.5.6.2 1.1.4 1.7.7s1.4.2 1.9-.3c.3-.3.8-.3 1.1 0l1 1c.3.3.3.8 0 1.1-.5.5-.6 1.3-.3 1.9.3.5.5 1.1.7 1.7.2.7.8 1.2 1.5 1.2.4 0 .8.4.8.8z"/><path d="m14.5 18.5v-3.5c1.8-.9 2.4-3.1 1.5-4.9-.3-.7-.9-1.2-1.5-1.5-.2-.1-.4 0-.5.2v2.7l-1.1.8-1.2-.8v-2.5c0-.2-.2-.4-.4-.4h-.2c-1.8.9-2.5 3.1-1.5 4.9.3.7.9 1.2 1.5 1.5v3.5c-3.2-.9-5.1-4.3-4.1-7.5.9-3.2 4.3-5.1 7.5-4.1s5.1 4.3 4.1 7.5c-.6 2-2.1 3.5-4.1 4.1z"/><path d="m23.2 10.3c-.4 0-.7-.2-.8-.6-.2-.6-.4-1.2-.8-1.8-.2-.3-.1-.7.1-1 .6-.6.6-1.6 0-2.3l-1-1c-.6-.6-1.6-.6-2.3 0-.3.3-.7.3-1 .1-.6-.3-1.2-.6-1.8-.8-.3-.1-.6-.4-.6-.8 0-.9-.7-1.6-1.6-1.6h-1.5c-.9 0-1.6.7-1.6 1.6 0 .4-.2.7-.6.8-.6.2-1.2.4-1.8.8-.3.2-.7.1-1-.1-.6-.6-1.6-.6-2.3 0l-1 1c-.6.6-.6 1.6 0 2.3.3.3.3.7.1 1-.3.6-.6 1.2-.8 1.8-.1.3-.4.6-.8.6-.9 0-1.6.7-1.6 1.6v1.5c0 .9.7 1.6 1.6 1.6.4 0 .7.2.8.6.2.6.4 1.2.8 1.8.2.3.1.7-.1 1-.6.6-.6 1.6 0 2.3l1 1c.6.6 1.6.6 2.3 0 .3-.3.7-.3 1-.1.6.3 1.2.6 1.8.8.3.1.6.4.6.8 0 .9.7 1.6 1.6 1.6h1.5c.9 0 1.6-.7 1.6-1.6 0-.4.2-.7.6-.8.6-.2 1.2-.4 1.8-.8.3-.2.7-.1 1 .1.6.6 1.6.6 2.3 0l1-1c.6-.6.6-1.6 0-2.3-.3-.3-.3-.7-.1-1 .3-.6.6-1.2.8-1.8.1-.3.4-.6.8-.6.9 0 1.6-.7 1.6-1.6v-1.5c0-.9-.7-1.6-1.6-1.6zm.8 3.1c0 .4-.4.8-.8.8-.7 0-1.3.5-1.5 1.2-.2.6-.4 1.1-.7 1.7s-.2 1.4.3 1.9c.3.3.3.8 0 1.1l-1 1c-.3.3-.8.3-1.1 0-.5-.5-1.3-.6-1.9-.3-.5.3-1.1.5-1.7.7-.7.2-1.2.8-1.2 1.5 0 .4-.4.8-.8.8h-1.5c-.4 0-.8-.4-.8-.8 0-.7-.5-1.3-1.2-1.5-.6-.2-1.1-.4-1.7-.7-.2-.1-.5-.2-.8-.2-.4 0-.8.2-1.1.5s-.8.3-1.1 0l-1-1c-.3-.3-.3-.8 0-1.1.5-.5.6-1.3.3-1.9-.3-.5-.5-1.1-.7-1.7-.2-.7-.8-1.2-1.5-1.2-.4 0-.8-.4-.8-.8v-1.5c0-.4.4-.8.8-.8.7 0 1.3-.5 1.5-1.2.2-.6.4-1.1.7-1.7s.2-1.4-.3-1.9c-.3-.3-.3-.8 0-1.1l1-1c.3-.3.8-.3 1.1 0 .5.5 1.3.6 1.9.3.5-.3 1.1-.5 1.7-.7.7-.2 1.2-.8 1.2-1.5 0-.4.4-.8.8-.8h1.5c.4 0 .8.4.8.8 0 .7.5 1.3 1.2 1.5.6.2 1.1.4 1.7.7s1.4.2 1.9-.3c.3-.3.8-.3 1.1 0l1 1c.3.3.3.8 0 1.1-.5.5-.6 1.3-.3 1.9.3.5.5 1.1.7 1.7.2.7.8 1.2 1.5 1.2.4 0 .8.4.8.8z"/><path d="m14.5 18.5v-3.5c1.8-.9 2.4-3.1 1.5-4.9-.3-.7-.9-1.2-1.5-1.5-.2-.1-.4 0-.5.2v2.7l-1.1.8-1.2-.8v-2.5c0-.2-.2-.4-.4-.4h-.2c-1.8.9-2.5 3.1-1.5 4.9.3.7.9 1.2 1.5 1.5v3.5c-3.2-.9-5.1-4.3-4.1-7.5.9-3.2 4.3-5.1 7.5-4.1s5.1 4.3 4.1 7.5c-.6 2-2.1 3.5-4.1 4.1z"/><path d="m23.2 10.3c-.4 0-.7-.2-.8-.6-.2-.6-.4-1.2-.8-1.8-.2-.3-.1-.7.1-1 .6-.6.6-1.6 0-2.3l-1-1c-.6-.6-1.6-.6-2.3 0-.3.3-.7.3-1 .1-.6-.3-1.2-.6-1.8-.8-.3-.1-.6-.4-.6-.8 0-.9-.7-1.6-1.6-1.6h-1.5c-.9 0-1.6.7-1.6 1.6 0 .4-.2.7-.6.8-.6.2-1.2.4-1.8.8-.3.2-.7.1-1-.1-.6-.6-1.6-.6-2.3 0l-1 1c-.6.6-.6 1.6 0 2.3.3.3.3.7.1 1-.3.6-.6 1.2-.8 1.8-.1.3-.4.6-.8.6-.9 0-1.6.7-1.6 1.6v1.5c0 .9.7 1.6 1.6 1.6.4 0 .7.2.8.6.2.6.4 1.2.8 1.8.2.3.1.7-.1 1-.6.6-.6 1.6 0 2.3l1 1c.6.6 1.6.6 2.3 0 .3-.3.7-.3 1-.1.6.3 1.2.6 1.8.8.3.1.6.4.6.8 0 .9.7 1.6 1.6 1.6h1.5c.9 0 1.6-.7 1.6-1.6 0-.4.2-.7.6-.8.6-.2 1.2-.4 1.8-.8.3-.2.7-.1 1 .1.6.6 1.6.6 2.3 0l1-1c.6-.6.6-1.6 0-2.3-.3-.3-.3-.7-.1-1 .3-.6.6-1.2.8-1.8.1-.3.4-.6.8-.6.9 0 1.6-.7 1.6-1.6v-1.5c0-.9-.7-1.6-1.6-1.6zm.8 3.1c0 .4-.4.8-.8.8-.7 0-1.3.5-1.5 1.2-.2.6-.4 1.1-.7 1.7s-.2 1.4.3 1.9c.3.3.3.8 0 1.1l-1 1c-.3.3-.8.3-1.1 0-.5-.5-1.3-.6-1.9-.3-.5.3-1.1.5-1.7.7-.7.2-1.2.8-1.2 1.5 0 .4-.4.8-.8.8h-1.5c-.4 0-.8-.4-.8-.8 0-.7-.5-1.3-1.2-1.5-.6-.2-1.1-.4-1.7-.7-.2-.1-.5-.2-.8-.2-.4 0-.8.2-1.1.5s-.8.3-1.1 0l-1-1c-.3-.3-.3-.8 0-1.1.5-.5.6-1.3.3-1.9-.3-.5-.5-1.1-.7-1.7-.2-.7-.8-1.2-1.5-1.2-.4 0-.8-.4-.8-.8v-1.5c0-.4.4-.8.8-.8.7 0 1.3-.5 1.5-1.2.2-.6.4-1.1.7-1.7s.2-1.4-.3-1.9c-.3-.3-.3-.8 0-1.1l1-1c.3-.3.8-.3 1.1 0 .5.5 1.3.6 1.9.3.5-.3 1.1-.5 1.7-.7.7-.2 1.2-.8 1.2-1.5 0-.4.4-.8.8-.8h1.5c.4 0 .8.4.8.8 0 .7.5 1.3 1.2 1.5.6.2 1.1.4 1.7.7s1.4.2 1.9-.3c.3-.3.8-.3 1.1 0l1 1c.3.3.3.8 0 1.1-.5.5-.6 1.3-.3 1.9.3.5.5 1.1.7 1.7.2.7.8 1.2 1.5 1.2.4 0 .8.4.8.8z"/><path d="m14.5 18.5v-3.5c1.8-.9 2.4-3.1 1.5-4.9-.3-.7-.9-1.2-1.5-1.5-.2-.1-.4 0-.5.2v2.7l-1.1.8-1.2-.8v-2.5c0-.2-.2-.4-.4-.4h-.2c-1.8.9-2.5 3.1-1.5 4.9.3.7.9 1.2 1.5 1.5v3.5c-3.2-.9-5.1-4.3-4.1-7.5.9-3.2 4.3-5.1 7.5-4.1s5.1 4.3 4.1 7.5c-.6 2-2.1 3.5-4.1 4.1z"/></g></svg>