<svg enable-background="new 0 0 24 24" viewBox="0 0 24 24" xmlns="http://www.w3.org/2000/svg"><path d="m13.3 34c-1.7.2-2.9 1.6-2.7 3.3.1 1.4 1.3 2.6 2.7 2.7 1.7-.2 2.9-1.6 2.7-3.3-.1-1.4-1.3-2.6-2.7-2.7zm0 4.5c-.8-.1-1.4-.8-1.4-1.6.1-.7.6-1.3 1.4-1.4.8.1 1.4.8 1.4 1.6-.1.8-.7 1.3-1.4 1.4zm9.3-4.5c-1.7.2-2.9 1.6-2.7 3.3.1 1.4 1.3 2.6 2.7 2.7 1.6-.1 2.8-1.4 2.7-3 .1-1.6-1.1-2.9-2.7-3zm0 4.5c-.8.1-1.6-.5-1.6-1.4-.1-.8.5-1.6 1.4-1.6.8-.1 1.6.5 1.6 1.4v.1c0 .8-.6 1.5-1.4 1.5zm-18.6-4.5c-1.7.2-2.9 1.6-2.7 3.3.2 1.4 1.3 2.6 2.7 2.7 1.7-.2 2.9-1.6 2.7-3.3-.1-1.4-1.2-2.6-2.7-2.7zm0 4.5c-.8-.1-1.4-.8-1.4-1.6.1-.7.6-1.3 1.4-1.4.8.1 1.4.8 1.4 1.6-.1.8-.6 1.3-1.4 1.4z" fill="#579fa3" transform="translate(-1.3 -25)"/></svg>