<svg viewBox="0 0 512 512" xmlns="http://www.w3.org/2000/svg"><g fill-rule="evenodd"><path d="m481.5 322.8c0 8.3-6.7 15-15 15s-15-6.7-15-15 6.7-15 15-15 15 6.7 15 15z" fill="#72828a"/><path d="m499.6 262.2h-99.6c-33.5 0-60.6 27.2-60.6 60.6s27.2 60.6 60.7 60.6h99.5c5.2 0 9.4-4.2 9.4-9.4v-102.4c0-5.2-4.2-9.4-9.4-9.4zm-33.1 88.3c-7.6 0-14.5-3.1-19.5-8.1s-8.1-11.9-8.1-19.5c0-15.2 12.4-27.6 27.6-27.6s27.6 12.4 27.6 27.6-12.4 27.6-27.6 27.6z" fill="#b8a68d"/><path d="m400.1 249.6h81.6v-88.6c0-16.8-13.6-30.4-30.4-30.4h-420.9c-16.8 0-30.4 13.6-30.4 30.4v323.7c0 16.8 13.6 30.4 30.4 30.4h420.8c16.8 0 30.4-13.6 30.4-30.4v-88.6h-81.6c-40.4-.2-73.1-33.1-73-73.5.2-40.2 32.7-72.8 73-73zm-175.5 207.2h-146.9c-3.5 0-6.3-2.8-6.3-6.3s2.8-6.3 6.3-6.3h146.9c3.5 0 6.3 2.8 6.3 6.3s-2.8 6.3-6.3 6.3z" fill="#72828a"/><path d="m400.2 69.7-180.4 48.3h193.3zm-15-56c-2-7.6-9.9-12.1-17.5-10.1l-320.9 86c-3.7 1-6.8 3.4-8.7 6.7s-2.4 7.2-1.4 10.8l2.9 10.9h131.5l225.8-60.5s-11.7-43.8-11.7-43.8z" fill="#b8a68d"/></g></svg>