<svg enable-background="new 0 0 56 56" viewBox="0 0 56 56" xmlns="http://www.w3.org/2000/svg"><path d="m15 0h26c8.3 0 15 6.7 15 15v26c0 8.3-6.7 15-15 15h-26c-8.3 0-15-6.7-15-15v-26c0-8.3 6.7-15 15-15z" fill="#347782"/><g fill="#b8a68d"><path d="m10.2 45.8 2.6-9.5c-1.4-2.6-2.2-5.5-2.2-8.5 0-9.7 7.9-17.6 17.6-17.6s17.6 7.9 17.6 17.6-7.9 17.6-17.6 17.6c-2.9 0-5.8-.7-8.4-2.1zm10.1-6.1.6.4c2.2 1.3 4.7 2 7.3 2 7.9 0 14.3-6.4 14.3-14.3s-6.4-14.3-14.3-14.3-14.3 6.4-14.3 14.3c0 2.6.7 5.2 2.1 7.4l.4.6-1.4 5.3z"/><path clip-rule="evenodd" d="m34.7 30.2c-.7-.4-1.7-.9-2.5-.6-.7.3-1.1 1.3-1.5 1.8-.2.3-.5.3-.8.2-2.5-1-4.3-2.6-5.7-4.9-.2-.4-.2-.6.1-1 .4-.5.9-1 1-1.7.1-.6-.2-1.4-.5-2-.3-.7-.7-1.8-1.5-2.2-.7-.4-1.6-.2-2.2.3-1 .9-1.6 2.2-1.5 3.5 0 .4.1.8.1 1.1.2.9.6 1.7 1.1 2.5.3.6.7 1.2 1.1 1.7 1.3 1.8 2.9 3.3 4.8 4.5.9.6 2 1.1 3 1.4 1.2.4 2.2.8 3.5.6 1.3-.3 2.7-1.1 3.2-2.4.2-.4.2-.8.1-1.2 0-.7-1.1-1.2-1.8-1.6z" fill-rule="evenodd"/></g></svg>