<svg viewBox="0 0 19.02 19.04" xmlns="http://www.w3.org/2000/svg"><g fill="#b8a68d"><path d="m0 19.04 1.39-5.08c-.75-1.39-1.18-2.94-1.18-4.55 0-5.19 4.22-9.41 9.41-9.41s9.41 4.23 9.41 9.41-4.22 9.41-9.41 9.41c-1.55 0-3.1-.37-4.49-1.12 0 0-5.13 1.34-5.13 1.34zm5.4-3.26.32.21c1.18.7 2.51 1.07 3.9 1.07 4.22 0 7.64-3.42 7.64-7.65s-3.42-7.65-7.64-7.65-7.64 3.43-7.64 7.65c0 1.39.37 2.78 1.12 3.96l.21.32-.75 2.83s2.83-.75 2.83-.75z"/><path d="m13.09 10.7c-.37-.21-.91-.48-1.34-.32-.37.16-.59.7-.8.96-.11.16-.27.16-.43.11-1.34-.53-2.3-1.39-3.05-2.62-.11-.21-.11-.32.05-.53.21-.27.48-.53.53-.91.05-.32-.11-.75-.27-1.07-.16-.37-.37-.96-.8-1.18-.37-.21-.86-.11-1.18.16-.53.48-.86 1.18-.8 1.87 0 .21.05.43.05.59.11.48.32.91.59 1.34.16.32.37.64.59.91.69.96 1.55 1.76 2.57 2.41.48.32 1.07.59 1.6.75.64.21 1.18.43 1.87.32.69-.16 1.44-.59 1.71-1.28.11-.21.11-.43.05-.64 0-.37-.59-.64-.96-.86z" fill-rule="evenodd"/></g></svg>